<svg id="svg" version="1.1" xmlns="http://www.w3.org/2000/svg" xmlns:xlink="http://www.w3.org/1999/xlink" width="400" height="75.29411764705883" viewBox="0, 0, 400,75.29411764705883"><g id="svgg"><path id="path0" d="M61.374 5.111 C 61.259 5.157,61.217 5.282,61.281 5.389 C 61.345 5.496,61.256 5.471,61.083 5.333 C 60.831 5.133,60.798 5.130,60.912 5.320 C 61.019 5.497,60.985 5.530,60.780 5.451 C 60.446 5.323,60.340 67.215,60.674 67.421 C 60.770 67.480,60.957 67.438,61.091 67.327 C 61.281 67.169,61.333 67.171,61.333 67.333 C 61.333 67.490,61.389 67.495,61.562 67.351 C 61.688 67.246,61.906 67.205,62.045 67.258 C 62.433 67.407,62.540 67.064,62.210 66.731 C 61.932 66.451,61.932 66.441,62.208 66.546 C 62.485 66.651,62.500 65.152,62.500 36.513 L 62.500 6.369 62.072 6.262 L 61.644 6.155 62.015 5.854 C 62.485 5.474,62.313 5.077,61.798 5.352 C 61.504 5.510,61.466 5.497,61.553 5.269 C 61.610 5.121,61.640 5.006,61.620 5.013 C 61.600 5.020,61.489 5.064,61.374 5.111 M60.792 51.362 C 60.768 59.734,60.748 52.933,60.748 36.250 C 60.748 19.567,60.768 12.717,60.792 21.028 C 60.816 29.340,60.816 42.990,60.792 51.362 M18.833 6.608 C 18.527 6.693,17.759 7.833,18.008 7.833 C 18.106 7.833,18.141 7.907,18.085 7.998 C 18.024 8.096,18.099 8.118,18.269 8.053 C 18.463 7.979,18.516 8.006,18.434 8.138 C 18.368 8.246,18.393 8.333,18.490 8.333 C 18.587 8.333,18.661 8.502,18.655 8.708 C 18.644 9.066,18.637 9.068,18.500 8.750 C 18.421 8.567,18.342 8.510,18.324 8.625 C 18.306 8.740,18.279 8.927,18.263 9.042 C 18.248 9.156,18.126 9.226,17.992 9.196 C 17.798 9.153,17.791 9.185,17.958 9.355 C 18.219 9.620,18.232 9.893,17.976 9.735 C 17.845 9.654,17.811 9.752,17.868 10.050 C 17.913 10.289,17.905 10.475,17.850 10.465 C 17.460 10.394,17.164 10.722,17.386 10.979 C 17.719 11.365,17.849 12.000,17.596 12.000 C 17.370 12.000,17.366 12.017,17.270 13.294 C 17.221 13.954,17.267 14.206,17.457 14.313 C 17.632 14.411,17.652 14.489,17.521 14.570 C 17.418 14.634,17.333 14.607,17.333 14.510 C 17.333 14.236,17.127 14.300,16.583 14.742 C 16.172 15.076,16.146 15.133,16.440 15.060 C 16.635 15.011,16.849 15.057,16.915 15.163 C 17.094 15.453,16.840 15.611,16.651 15.329 C 16.518 15.131,16.495 15.147,16.535 15.413 C 16.561 15.594,16.496 15.744,16.389 15.746 C 16.282 15.748,16.132 15.818,16.056 15.902 C 15.976 15.989,16.000 16.006,16.113 15.941 C 16.222 15.879,16.357 15.904,16.415 15.997 C 16.473 16.090,16.428 16.167,16.315 16.167 C 16.203 16.167,16.160 16.216,16.221 16.276 C 16.281 16.337,16.237 16.501,16.124 16.642 C 16.010 16.782,15.992 16.853,16.083 16.799 C 16.175 16.746,16.347 16.806,16.465 16.934 C 16.603 17.084,16.615 17.167,16.497 17.167 C 16.396 17.167,16.357 17.236,16.410 17.322 C 16.462 17.407,16.428 17.525,16.333 17.583 C 16.239 17.642,16.206 17.761,16.260 17.849 C 16.314 17.937,16.296 17.998,16.221 17.984 C 15.727 17.899,15.646 18.027,16.000 18.333 C 16.211 18.517,16.293 18.667,16.182 18.667 C 16.071 18.667,16.029 18.745,16.088 18.841 C 16.147 18.936,16.105 19.124,15.994 19.257 C 15.883 19.391,15.850 19.500,15.921 19.500 C 15.992 19.500,15.814 19.725,15.526 20.000 C 15.121 20.388,15.068 20.501,15.293 20.503 C 15.541 20.505,15.547 20.528,15.333 20.667 C 15.114 20.808,15.115 20.829,15.346 20.831 C 15.535 20.833,15.605 20.991,15.596 21.395 C 15.588 21.745,15.511 21.929,15.392 21.884 C 15.103 21.774,14.932 22.168,15.172 22.390 C 15.335 22.540,15.352 22.531,15.249 22.349 C 15.164 22.200,15.179 22.155,15.292 22.224 C 15.497 22.351,15.364 23.026,15.098 23.206 C 14.991 23.278,15.053 23.332,15.250 23.337 C 15.484 23.344,15.410 23.422,15.003 23.598 C 14.543 23.798,14.474 23.882,14.670 24.006 C 14.851 24.120,14.859 24.162,14.698 24.164 C 14.579 24.166,14.527 24.243,14.585 24.336 C 14.643 24.429,14.771 24.455,14.871 24.394 C 14.979 24.326,15.003 24.360,14.931 24.477 C 14.865 24.584,14.746 24.632,14.667 24.583 C 14.588 24.535,14.476 24.571,14.418 24.664 C 14.361 24.757,14.424 24.833,14.560 24.833 C 14.695 24.833,14.843 24.927,14.890 25.042 C 14.941 25.170,14.979 25.142,14.987 24.968 C 14.994 24.813,15.061 24.648,15.137 24.602 C 15.212 24.556,15.241 24.738,15.201 25.008 C 15.137 25.445,15.077 25.489,14.653 25.414 C 14.258 25.345,14.194 25.378,14.283 25.609 C 14.345 25.770,14.322 25.846,14.229 25.788 C 14.136 25.731,14.066 25.966,14.064 26.344 C 14.062 26.705,14.127 27.000,14.208 27.000 C 14.289 27.000,14.196 27.224,14.001 27.499 C 13.776 27.814,13.731 27.965,13.878 27.908 C 14.016 27.856,14.111 27.925,14.111 28.076 C 14.111 28.218,14.051 28.333,13.977 28.333 C 13.904 28.333,13.887 28.447,13.940 28.585 C 14.008 28.760,13.960 28.808,13.785 28.741 C 13.305 28.556,13.284 29.031,13.756 29.408 C 14.220 29.778,14.212 30.167,13.740 30.167 C 13.608 30.167,13.500 30.246,13.500 30.343 C 13.500 30.440,13.594 30.463,13.708 30.395 C 13.867 30.299,13.866 30.332,13.702 30.534 C 13.585 30.679,13.510 30.900,13.536 31.024 C 13.562 31.148,13.490 31.231,13.375 31.208 C 13.260 31.185,13.167 31.273,13.167 31.403 C 13.167 31.533,13.073 31.683,12.958 31.738 C 12.844 31.792,12.919 31.806,13.125 31.767 C 13.332 31.729,13.458 31.766,13.407 31.849 C 13.356 31.932,13.464 32.000,13.647 32.000 C 13.830 32.000,14.022 32.068,14.074 32.151 C 14.125 32.234,14.017 32.263,13.833 32.215 C 13.649 32.167,13.393 32.214,13.265 32.321 C 13.087 32.469,13.013 32.464,12.950 32.299 C 12.904 32.180,12.875 32.248,12.885 32.450 C 12.898 32.715,12.958 32.771,13.103 32.650 C 13.237 32.539,13.339 32.542,13.412 32.659 C 13.471 32.755,13.448 32.833,13.361 32.833 C 13.106 32.833,12.987 33.331,13.164 33.661 C 13.282 33.883,13.258 34.022,13.073 34.175 C 12.897 34.321,12.872 34.439,12.993 34.560 C 13.195 34.761,13.223 35.009,13.042 34.980 C 12.571 34.906,12.263 35.013,12.500 35.169 C 12.722 35.315,12.722 35.352,12.500 35.497 C 12.318 35.617,12.309 35.662,12.468 35.664 C 12.588 35.666,12.636 35.749,12.574 35.849 C 12.511 35.950,12.563 36.224,12.689 36.460 C 12.868 36.796,12.872 36.903,12.708 36.958 C 12.594 36.996,12.500 37.176,12.500 37.357 C 12.500 37.538,12.425 37.640,12.333 37.583 C 12.105 37.442,12.123 37.723,12.357 37.957 C 12.500 38.100,12.449 38.122,12.149 38.045 C 11.792 37.953,11.774 37.972,11.979 38.221 C 12.140 38.418,12.149 38.500,12.011 38.500 C 11.900 38.500,11.868 38.588,11.937 38.700 C 12.111 38.981,12.123 39.667,11.954 39.667 C 11.877 39.667,11.860 39.742,11.917 39.833 C 11.973 39.925,11.936 40.000,11.833 40.000 C 11.731 40.000,11.688 40.067,11.738 40.148 C 11.789 40.229,11.732 40.376,11.613 40.475 C 11.465 40.598,11.405 41.072,11.422 41.986 C 11.445 43.215,11.425 43.305,11.150 43.158 C 10.959 43.055,10.817 43.058,10.750 43.166 C 10.659 43.314,10.746 43.385,11.000 43.367 C 11.046 43.364,11.083 43.573,11.083 43.831 C 11.083 44.090,11.027 44.267,10.958 44.224 C 10.890 44.182,10.833 44.247,10.833 44.370 C 10.833 44.493,10.688 44.698,10.509 44.827 C 10.211 45.041,10.207 45.076,10.461 45.262 C 10.681 45.423,10.696 45.513,10.537 45.706 C 10.426 45.839,10.384 45.995,10.442 46.053 C 10.500 46.111,10.458 46.266,10.349 46.398 C 10.204 46.572,10.201 46.668,10.337 46.752 C 10.439 46.815,10.481 46.976,10.430 47.109 C 10.373 47.257,10.408 47.307,10.520 47.238 C 10.734 47.105,10.558 47.793,10.292 48.125 C 10.200 48.240,10.171 48.578,10.226 48.875 C 10.306 49.299,10.290 49.352,10.154 49.121 C 9.960 48.793,9.667 48.882,9.667 49.270 C 9.667 49.425,9.745 49.472,9.875 49.395 C 10.017 49.309,10.010 49.360,9.855 49.551 C 9.729 49.706,9.702 49.833,9.795 49.833 C 9.888 49.833,9.954 50.022,9.941 50.252 C 9.927 50.482,9.835 50.639,9.735 50.600 C 9.463 50.496,9.024 50.835,9.290 50.943 C 9.441 51.004,9.451 51.114,9.326 51.347 C 9.195 51.592,9.210 51.667,9.390 51.667 C 9.520 51.667,9.721 51.781,9.836 51.920 C 10.015 52.135,10.001 52.156,9.746 52.059 C 9.553 51.985,9.485 52.007,9.555 52.121 C 9.615 52.219,9.544 52.345,9.397 52.401 C 9.198 52.478,9.175 52.560,9.310 52.722 C 9.442 52.881,9.426 53.032,9.251 53.281 C 9.119 53.469,9.065 53.682,9.131 53.755 C 9.196 53.827,9.155 53.832,9.039 53.765 C 8.923 53.698,8.878 53.555,8.938 53.447 C 8.999 53.339,8.888 53.416,8.691 53.618 C 8.290 54.030,8.217 54.368,8.556 54.238 C 8.682 54.189,8.778 54.264,8.778 54.409 C 8.778 54.551,8.723 54.667,8.657 54.667 C 8.464 54.667,8.320 55.178,8.453 55.390 C 8.677 55.749,8.660 56.036,8.426 55.841 C 8.259 55.702,8.230 55.758,8.295 56.097 C 8.356 56.414,8.416 56.470,8.520 56.307 C 8.598 56.184,8.663 56.152,8.664 56.237 C 8.666 56.321,8.538 56.533,8.380 56.708 C 8.222 56.882,8.166 57.010,8.255 56.993 C 8.739 56.897,8.913 57.013,8.619 57.237 C 8.455 57.361,8.342 57.565,8.369 57.690 C 8.395 57.814,8.323 57.898,8.208 57.875 C 8.094 57.852,8.019 57.927,8.042 58.042 C 8.065 58.156,7.971 58.230,7.833 58.206 C 7.696 58.183,7.790 58.335,8.042 58.546 C 8.599 59.012,8.606 59.113,8.113 59.570 C 7.900 59.767,7.763 60.039,7.807 60.173 C 7.876 60.383,7.845 60.382,7.578 60.167 C 7.400 60.023,7.322 60.005,7.395 60.125 C 7.463 60.240,7.440 60.333,7.343 60.333 C 7.246 60.333,7.317 60.483,7.500 60.667 C 7.878 61.045,7.977 62.195,7.625 62.125 C 7.508 62.102,7.422 62.240,7.428 62.441 C 7.435 62.648,7.358 62.768,7.246 62.726 C 7.140 62.685,6.954 62.772,6.832 62.918 C 6.710 63.065,6.679 63.172,6.763 63.156 C 7.138 63.085,7.249 63.198,7.236 63.638 C 7.228 63.897,7.174 64.186,7.116 64.280 C 6.775 64.832,6.666 65.369,6.914 65.274 C 7.068 65.215,7.167 65.271,7.167 65.418 C 7.167 65.609,7.076 65.624,6.727 65.491 C 6.175 65.281,5.978 65.450,6.407 65.764 C 6.844 66.083,6.892 66.492,6.483 66.413 C 6.309 66.380,6.167 66.423,6.167 66.510 C 6.167 66.596,6.288 66.667,6.437 66.667 C 6.659 66.667,6.670 66.712,6.500 66.917 C 6.333 67.118,6.337 67.167,6.521 67.169 C 6.714 67.171,6.714 67.194,6.520 67.317 C 6.394 67.397,6.342 67.546,6.405 67.648 C 6.473 67.758,6.397 67.834,6.218 67.836 C 5.982 67.838,5.966 67.870,6.146 67.984 C 6.273 68.064,6.325 68.213,6.262 68.315 C 6.199 68.417,6.220 68.500,6.310 68.500 C 6.399 68.500,6.610 68.545,6.778 68.599 C 6.959 68.658,7.011 68.641,6.905 68.557 C 6.806 68.480,6.727 68.202,6.730 67.940 C 6.733 67.463,6.733 67.463,7.019 67.816 C 7.218 68.061,7.331 68.105,7.389 67.959 C 7.456 67.793,7.476 67.793,7.487 67.958 C 7.507 68.278,39.880 68.262,40.145 67.943 C 40.247 67.820,40.294 67.683,40.250 67.639 C 40.205 67.594,40.404 67.593,40.692 67.635 C 41.042 67.686,41.177 67.652,41.102 67.530 C 41.040 67.430,40.895 67.384,40.780 67.428 C 40.657 67.475,40.571 67.376,40.571 67.187 C 40.571 66.969,40.667 66.885,40.869 66.924 C 41.033 66.955,41.167 66.910,41.167 66.824 C 41.167 66.737,41.082 66.667,40.980 66.667 C 40.850 66.667,40.857 66.589,41.000 66.417 C 41.114 66.279,41.311 66.167,41.437 66.167 C 41.777 66.167,41.716 65.669,41.375 65.654 C 41.198 65.646,41.166 65.607,41.294 65.556 C 41.409 65.509,41.590 65.309,41.696 65.110 C 41.869 64.785,41.861 64.772,41.611 64.979 C 41.439 65.120,41.333 65.138,41.333 65.026 C 41.333 64.926,41.228 64.884,41.100 64.933 C 40.972 64.982,40.818 64.943,40.757 64.845 C 40.696 64.746,40.770 64.667,40.925 64.667 C 41.120 64.667,41.170 64.580,41.091 64.375 C 41.002 64.141,41.022 64.125,41.190 64.292 C 41.306 64.406,41.472 64.500,41.561 64.500 C 41.650 64.500,41.673 64.451,41.613 64.390 C 41.552 64.330,41.596 64.166,41.710 64.025 C 41.875 63.821,41.875 63.795,41.708 63.895 C 41.364 64.101,41.464 63.518,41.871 62.948 C 42.400 62.204,42.410 61.657,41.885 62.182 C 41.753 62.314,41.605 62.312,41.351 62.176 C 40.840 61.903,40.894 61.503,41.430 61.600 C 41.679 61.645,41.819 61.611,41.762 61.519 C 41.708 61.431,41.420 61.385,41.123 61.415 C 40.826 61.446,35.108 61.496,28.417 61.526 L 16.250 61.580 28.500 61.667 L 40.750 61.753 28.650 61.793 C 16.225 61.834,15.503 61.801,15.497 61.192 C 15.495 60.960,15.471 60.955,15.342 61.159 C 15.258 61.292,15.226 61.461,15.271 61.534 C 15.316 61.607,15.269 61.667,15.165 61.667 C 15.045 61.667,15.022 61.531,15.101 61.292 C 15.168 61.085,15.216 60.790,15.206 60.634 C 15.194 60.440,15.276 60.382,15.469 60.449 C 15.693 60.525,15.686 60.495,15.433 60.298 C 15.223 60.134,15.178 60.012,15.301 59.937 C 15.402 59.874,15.441 59.706,15.386 59.564 C 15.316 59.380,15.379 59.314,15.602 59.338 C 16.246 59.407,16.365 59.353,16.132 59.099 C 16.013 58.971,15.851 58.877,15.771 58.891 C 15.691 58.905,15.587 58.812,15.541 58.685 C 15.492 58.550,15.531 58.499,15.634 58.563 C 15.747 58.633,15.792 58.505,15.759 58.211 C 15.700 57.696,15.946 57.280,16.211 57.444 C 16.310 57.505,16.335 57.471,16.270 57.366 C 16.207 57.265,16.034 57.228,15.884 57.286 C 15.702 57.355,15.652 57.325,15.732 57.195 C 15.799 57.088,15.961 57.000,16.093 57.000 C 16.240 57.000,16.333 56.834,16.333 56.573 C 16.333 56.339,16.271 56.186,16.194 56.233 C 16.117 56.281,16.077 56.116,16.105 55.868 C 16.133 55.620,16.177 55.229,16.203 55.000 C 16.229 54.771,16.438 54.446,16.667 54.279 L 17.083 53.975 16.667 54.078 L 16.250 54.181 16.667 53.930 C 16.896 53.791,17.018 53.676,16.938 53.673 C 16.858 53.669,16.875 53.567,16.976 53.446 C 17.110 53.284,17.104 53.166,16.954 53.005 C 16.789 52.826,16.808 52.805,17.052 52.891 C 17.323 52.986,17.317 52.945,16.999 52.499 C 16.804 52.224,16.705 51.999,16.780 51.997 C 16.855 51.996,16.833 51.940,16.731 51.872 C 16.629 51.805,16.492 51.563,16.428 51.333 C 16.341 51.022,16.355 50.980,16.482 51.165 C 16.627 51.377,16.685 51.380,16.868 51.182 C 16.987 51.055,16.998 50.999,16.892 51.058 C 16.787 51.117,16.661 51.060,16.612 50.931 C 16.555 50.782,16.671 50.660,16.935 50.594 C 17.161 50.537,17.302 50.418,17.247 50.329 C 17.193 50.241,17.351 49.980,17.598 49.751 C 17.954 49.421,17.989 49.333,17.763 49.333 C 17.548 49.333,17.505 49.246,17.590 48.979 C 17.666 48.741,17.642 48.662,17.518 48.739 C 17.402 48.811,17.333 48.697,17.333 48.432 C 17.333 48.144,17.478 47.932,17.792 47.762 C 18.044 47.625,18.169 47.510,18.069 47.507 C 17.970 47.503,17.889 47.395,17.889 47.266 C 17.889 47.137,17.979 47.066,18.090 47.109 C 18.200 47.151,18.341 47.053,18.404 46.890 C 18.466 46.727,18.464 46.647,18.399 46.712 C 18.153 46.958,17.813 46.476,18.040 46.202 C 18.155 46.063,18.226 45.906,18.196 45.854 C 18.166 45.801,18.233 45.728,18.344 45.691 C 18.472 45.648,18.498 45.702,18.414 45.837 C 18.329 45.975,18.348 46.010,18.467 45.937 C 18.569 45.874,18.610 45.713,18.559 45.579 C 18.507 45.445,18.406 45.372,18.333 45.417 C 18.261 45.461,18.155 45.378,18.099 45.230 C 18.027 45.042,18.068 44.991,18.240 45.056 C 18.405 45.120,18.453 45.070,18.388 44.901 C 18.335 44.765,18.358 44.665,18.438 44.680 C 18.781 44.742,19.012 44.654,18.915 44.497 C 18.857 44.404,18.746 44.368,18.667 44.417 C 18.588 44.465,18.469 44.418,18.402 44.310 C 18.328 44.189,18.354 44.160,18.472 44.233 C 18.605 44.315,18.632 44.200,18.561 43.847 C 18.506 43.570,18.518 43.210,18.589 43.047 C 18.660 42.884,18.700 42.608,18.678 42.435 C 18.650 42.215,18.713 42.149,18.888 42.216 C 19.184 42.329,19.408 41.893,19.116 41.774 C 18.980 41.719,18.989 41.689,19.145 41.680 C 19.339 41.669,19.339 41.624,19.145 41.385 C 19.015 41.224,19.001 41.153,19.113 41.221 C 19.222 41.286,19.357 41.263,19.415 41.169 C 19.473 41.076,19.442 41.000,19.347 41.000 C 19.231 41.000,19.235 40.867,19.359 40.594 C 19.528 40.222,19.613 40.196,20.355 40.284 C 20.907 40.349,21.167 40.319,21.167 40.190 C 21.167 40.054,22.138 40.000,24.583 40.000 C 26.750 40.000,28.000 40.061,28.000 40.167 C 28.000 40.258,28.337 40.333,28.750 40.333 C 29.162 40.333,29.500 40.258,29.500 40.167 C 29.500 40.060,30.948 40.000,33.510 40.000 C 36.141 40.000,37.484 40.057,37.417 40.167 C 37.353 40.269,37.637 40.333,38.157 40.333 C 38.621 40.333,39.000 40.258,39.000 40.167 C 39.000 40.075,39.188 40.000,39.417 40.000 C 39.646 40.000,39.833 39.912,39.833 39.806 C 39.833 39.699,39.882 39.659,39.940 39.718 C 39.999 39.777,39.953 39.940,39.837 40.079 C 39.711 40.231,39.696 40.333,39.799 40.333 C 39.894 40.333,40.003 40.240,40.041 40.126 C 40.079 40.012,40.252 39.918,40.424 39.917 C 40.663 39.917,40.740 39.790,40.749 39.384 C 40.755 39.091,40.813 38.798,40.878 38.733 C 40.944 38.667,40.914 38.513,40.811 38.390 C 40.668 38.217,40.696 38.166,40.938 38.162 C 41.232 38.157,41.233 38.147,40.955 37.985 C 40.792 37.890,40.705 37.739,40.761 37.648 C 40.825 37.546,40.963 37.565,41.130 37.700 C 41.301 37.839,41.355 37.846,41.279 37.720 C 41.214 37.612,41.234 37.478,41.323 37.423 C 41.412 37.368,41.438 37.200,41.380 37.049 C 41.301 36.841,41.344 36.802,41.563 36.886 C 41.734 36.951,41.809 36.929,41.749 36.831 C 41.693 36.741,41.476 36.667,41.268 36.667 C 40.762 36.667,40.777 36.217,41.287 36.089 C 41.592 36.012,41.661 35.912,41.582 35.661 C 41.524 35.479,41.554 35.333,41.650 35.333 C 41.745 35.333,41.775 35.209,41.716 35.056 C 41.646 34.873,41.675 34.819,41.800 34.896 C 41.930 34.976,41.984 34.833,41.969 34.446 C 41.951 33.965,41.897 33.892,41.614 33.965 C 41.392 34.024,41.320 33.989,41.399 33.861 C 41.478 33.734,41.423 33.707,41.231 33.780 C 41.073 33.841,40.988 33.822,41.040 33.737 C 41.098 33.644,37.394 33.602,31.651 33.630 C 25.027 33.662,22.167 33.623,22.167 33.499 C 22.167 33.376,22.060 33.379,21.820 33.507 C 21.395 33.735,20.932 33.583,21.058 33.257 C 21.116 33.105,21.069 33.048,20.930 33.101 C 20.809 33.148,20.665 33.069,20.610 32.926 C 20.555 32.783,20.581 32.667,20.667 32.667 C 20.753 32.667,20.780 32.554,20.727 32.417 C 20.674 32.279,20.679 32.167,20.738 32.167 C 20.796 32.167,20.907 32.335,20.984 32.542 C 21.089 32.821,21.117 32.716,21.093 32.128 C 21.076 31.694,21.011 31.288,20.948 31.226 C 20.886 31.164,20.985 31.009,21.168 30.880 C 21.516 30.637,21.648 30.055,21.308 30.266 C 21.177 30.347,21.161 30.311,21.258 30.153 C 21.337 30.026,21.380 29.677,21.355 29.377 C 21.326 29.043,21.384 28.833,21.505 28.833 C 21.614 28.833,21.661 28.726,21.611 28.595 C 21.550 28.436,21.614 28.374,21.801 28.410 C 22.003 28.449,22.083 28.351,22.083 28.066 C 22.083 27.846,22.022 27.667,21.947 27.667 C 21.872 27.667,21.861 27.507,21.923 27.312 C 22.006 27.052,21.980 26.993,21.825 27.088 C 21.689 27.173,21.657 27.151,21.734 27.026 C 21.799 26.920,21.961 26.833,22.093 26.833 C 22.225 26.833,22.333 26.754,22.333 26.657 C 22.333 26.560,22.392 26.517,22.464 26.561 C 22.536 26.606,22.600 26.516,22.606 26.363 C 22.611 26.209,22.646 25.971,22.683 25.833 C 22.720 25.696,22.669 25.598,22.569 25.616 C 22.470 25.634,22.389 25.540,22.389 25.407 C 22.389 25.275,22.451 25.167,22.528 25.167 C 22.604 25.167,22.666 25.035,22.664 24.875 C 22.662 24.626,22.638 24.620,22.500 24.833 C 22.367 25.039,22.338 25.021,22.336 24.736 C 22.334 24.545,22.387 24.336,22.452 24.270 C 22.619 24.103,22.636 22.667,22.472 22.566 C 22.398 22.520,22.430 22.382,22.543 22.260 C 22.694 22.097,22.783 22.088,22.872 22.227 C 22.949 22.345,22.996 22.299,22.997 22.105 C 23.000 21.833,23.037 21.821,23.292 22.018 C 23.569 22.233,23.569 22.228,23.292 21.901 C 22.969 21.521,22.909 21.167,23.167 21.167 C 23.258 21.167,23.334 20.960,23.336 20.708 C 23.338 20.339,23.373 20.299,23.515 20.500 C 23.672 20.722,23.684 20.722,23.622 20.500 C 23.579 20.344,23.402 20.271,23.151 20.306 C 22.827 20.351,22.790 20.321,22.958 20.148 C 23.073 20.030,23.167 19.756,23.167 19.540 C 23.167 19.310,23.239 19.192,23.340 19.254 C 23.453 19.324,23.477 19.196,23.410 18.889 C 23.339 18.566,23.357 18.488,23.465 18.642 C 23.661 18.920,24.223 18.224,24.039 17.931 C 23.809 17.563,23.869 17.309,24.222 17.167 C 24.494 17.057,24.514 17.019,24.300 17.011 C 24.072 17.002,24.032 16.879,24.092 16.375 C 24.133 16.031,24.192 15.429,24.222 15.037 C 24.252 14.645,24.363 14.237,24.469 14.131 C 24.615 13.985,24.597 13.865,24.392 13.639 C 24.141 13.362,24.144 13.332,24.426 13.223 C 24.606 13.154,24.757 13.187,24.796 13.303 C 24.832 13.412,24.934 13.500,25.024 13.500 C 25.113 13.500,25.147 13.436,25.098 13.357 C 25.050 13.279,25.210 13.253,25.455 13.300 C 25.886 13.382,25.889 13.389,25.533 13.520 C 25.332 13.595,25.167 13.700,25.167 13.754 C 25.167 13.809,25.233 13.812,25.314 13.762 C 25.396 13.712,31.130 13.668,38.058 13.665 C 49.823 13.659,50.646 13.640,50.545 13.376 C 50.449 13.126,50.467 13.122,50.701 13.339 C 50.846 13.473,50.931 13.640,50.889 13.708 C 50.848 13.777,50.933 13.833,51.079 13.833 C 51.298 13.833,51.312 13.771,51.156 13.480 C 51.023 13.231,51.021 13.160,51.150 13.240 C 51.315 13.342,51.419 13.005,51.346 12.605 C 51.332 12.525,51.417 12.496,51.535 12.542 C 51.690 12.601,51.743 12.445,51.725 11.978 C 51.712 11.623,51.780 11.283,51.876 11.224 C 51.979 11.160,52.002 11.195,51.933 11.308 C 51.867 11.413,51.893 11.500,51.990 11.500 C 52.231 11.500,52.213 11.116,51.958 10.844 C 51.787 10.661,51.807 10.652,52.072 10.793 C 52.306 10.917,52.453 10.904,52.613 10.744 C 52.927 10.430,52.887 10.353,52.458 10.447 C 52.199 10.503,52.150 10.481,52.299 10.375 C 52.437 10.277,52.480 10.029,52.420 9.686 C 52.356 9.325,52.408 9.068,52.580 8.897 C 52.775 8.701,52.837 8.693,52.850 8.863 C 52.859 8.984,52.922 8.896,52.990 8.667 C 53.058 8.438,53.057 8.175,52.988 8.083 C 52.918 7.992,52.837 7.842,52.806 7.750 C 52.775 7.658,52.682 7.606,52.599 7.634 C 52.515 7.662,52.396 7.602,52.334 7.501 C 52.153 7.208,52.021 7.206,35.365 7.186 C 24.823 7.173,19.515 7.111,19.583 7.000 C 19.640 6.908,19.551 6.815,19.385 6.793 C 19.219 6.771,26.433 6.714,35.417 6.667 L 51.750 6.581 35.417 6.560 C 26.433 6.548,18.971 6.570,18.833 6.608 M24.444 14.529 C 24.335 14.945,24.451 15.216,24.678 15.076 C 24.876 14.954,24.882 14.167,24.686 14.167 C 24.605 14.167,24.496 14.330,24.444 14.529 M40.500 34.000 C 40.500 34.109,37.333 34.167,31.333 34.167 C 25.333 34.167,22.167 34.109,22.167 34.000 C 22.167 33.891,25.333 33.833,31.333 33.833 C 37.333 33.833,40.500 33.891,40.500 34.000 M18.757 43.291 C 18.619 43.653,18.649 43.833,18.847 43.833 C 18.947 43.833,18.996 43.740,18.958 43.625 C 18.919 43.510,18.998 43.335,19.132 43.236 C 19.345 43.079,19.342 43.056,19.113 43.056 C 18.967 43.056,18.807 43.162,18.757 43.291 M22.125 60.958 C 25.540 60.983,31.127 60.983,34.542 60.958 C 37.956 60.933,35.163 60.912,28.333 60.912 C 21.504 60.912,18.710 60.933,22.125 60.958 " stroke="none" fill="#04acb4" fill-rule="evenodd"></path><path id="path1" d="M52.955 6.833 C 53.112 7.017,53.298 7.167,53.369 7.167 C 53.439 7.167,53.368 7.017,53.211 6.833 C 53.054 6.650,52.868 6.500,52.798 6.500 C 52.728 6.500,52.798 6.650,52.955 6.833 M17.180 9.975 C 16.908 10.483,16.964 10.625,17.267 10.193 C 17.414 9.983,17.495 9.773,17.447 9.725 C 17.399 9.677,17.279 9.790,17.180 9.975 M16.782 11.625 C 16.588 11.965,16.497 13.078,16.689 12.761 C 16.796 12.584,16.909 12.228,16.939 11.969 C 16.992 11.513,16.927 11.371,16.782 11.625 M85.601 17.264 C 85.546 17.409,85.498 18.140,85.495 18.889 C 85.491 19.821,85.412 20.352,85.245 20.574 C 85.053 20.827,85.000 21.484,85.000 23.620 C 85.000 25.887,84.958 26.360,84.750 26.440 C 84.553 26.515,84.500 26.861,84.500 28.083 C 84.500 29.305,84.447 29.651,84.250 29.727 C 84.052 29.803,84.000 30.156,84.000 31.440 C 84.000 32.594,83.933 33.132,83.765 33.320 C 83.598 33.508,83.515 34.178,83.474 35.667 L 83.417 37.750 89.667 37.790 C 96.754 37.836,96.375 37.911,96.468 36.452 C 96.554 35.095,96.842 35.172,91.625 35.169 L 87.500 35.167 87.500 34.727 C 87.500 34.485,87.616 34.202,87.759 34.098 C 87.947 33.960,88.056 33.414,88.161 32.079 C 88.241 31.073,88.354 30.025,88.413 29.750 C 88.472 29.475,88.555 29.081,88.597 28.875 C 88.673 28.502,88.686 28.500,91.931 28.500 C 95.716 28.500,95.755 28.488,95.905 27.289 C 96.096 25.755,96.294 25.833,92.232 25.833 L 88.667 25.833 88.672 25.292 C 88.675 24.994,88.787 24.604,88.922 24.426 C 89.092 24.202,89.168 23.666,89.172 22.676 C 89.176 21.687,89.252 21.151,89.422 20.926 C 89.557 20.749,89.667 20.355,89.667 20.051 L 89.667 19.500 94.083 19.500 L 98.500 19.500 98.500 18.250 L 98.500 17.000 92.101 17.000 C 86.420 17.000,85.691 17.030,85.601 17.264 M131.500 17.420 C 131.500 17.651,131.725 18.261,132.000 18.777 C 132.275 19.292,132.500 19.805,132.500 19.918 C 132.500 20.030,132.650 20.312,132.833 20.545 C 133.017 20.779,133.167 21.091,133.167 21.240 C 133.167 21.389,133.279 21.554,133.417 21.606 C 133.554 21.659,133.667 21.874,133.667 22.083 C 133.667 22.293,133.779 22.508,133.917 22.560 C 134.063 22.616,134.167 22.866,134.167 23.161 C 134.167 23.499,134.249 23.667,134.417 23.667 C 134.569 23.667,134.667 23.822,134.667 24.063 C 134.667 24.281,134.779 24.553,134.917 24.667 C 135.054 24.781,135.167 25.010,135.167 25.175 C 135.167 25.341,135.279 25.589,135.417 25.726 C 135.554 25.864,135.667 26.235,135.667 26.551 C 135.667 26.867,135.554 27.219,135.417 27.333 C 135.279 27.447,135.167 27.644,135.167 27.770 C 135.167 27.897,135.054 28.000,134.917 28.000 C 134.779 28.000,134.667 28.104,134.667 28.232 C 134.667 28.360,134.554 28.508,134.417 28.560 C 134.279 28.613,134.167 28.846,134.167 29.078 C 134.167 29.342,134.073 29.500,133.917 29.500 C 133.779 29.500,133.667 29.613,133.667 29.750 C 133.667 29.887,133.554 30.000,133.417 30.000 C 133.279 30.000,133.167 30.068,133.167 30.152 C 133.167 30.382,132.294 31.667,132.137 31.667 C 132.062 31.667,131.997 31.760,131.993 31.875 C 131.989 31.990,131.764 32.267,131.493 32.492 C 131.209 32.728,131.000 33.063,131.000 33.284 C 131.000 33.513,130.900 33.667,130.750 33.667 C 130.612 33.667,130.500 33.771,130.500 33.899 C 130.500 34.027,130.387 34.174,130.250 34.227 C 130.112 34.280,130.000 34.438,130.000 34.578 C 130.000 34.718,129.887 34.833,129.750 34.833 C 129.583 34.833,129.500 35.000,129.500 35.333 C 129.500 35.628,129.413 35.833,129.287 35.833 C 128.807 35.833,127.903 37.266,128.176 37.594 C 128.474 37.953,132.500 37.943,132.500 37.583 C 132.500 37.446,132.612 37.333,132.750 37.333 C 132.887 37.333,133.000 37.230,133.000 37.103 C 133.000 36.976,133.150 36.833,133.333 36.785 C 133.517 36.737,133.667 36.586,133.667 36.450 C 133.667 36.314,133.779 36.159,133.917 36.106 C 134.054 36.054,134.167 35.821,134.167 35.589 C 134.167 35.325,134.260 35.167,134.417 35.167 C 134.554 35.167,134.670 35.073,134.674 34.958 C 134.678 34.844,134.903 34.566,135.174 34.341 C 135.445 34.116,135.670 33.779,135.674 33.591 C 135.678 33.404,135.903 33.066,136.174 32.841 C 136.445 32.616,136.667 32.335,136.667 32.216 C 136.667 32.097,136.771 32.000,136.899 32.000 C 137.026 32.000,137.177 31.814,137.234 31.587 C 137.291 31.359,137.562 30.944,137.836 30.664 C 138.109 30.384,138.333 30.085,138.333 29.999 C 138.333 29.914,138.446 29.887,138.583 29.940 C 138.726 29.994,138.833 30.243,138.833 30.518 C 138.833 30.835,138.919 31.000,139.083 31.000 C 139.248 31.000,139.333 31.165,139.333 31.482 C 139.333 31.757,139.441 32.006,139.583 32.060 C 139.721 32.113,139.833 32.276,139.833 32.422 C 139.833 32.773,140.599 34.438,140.824 34.578 C 140.921 34.637,141.000 34.823,141.000 34.989 C 141.000 35.156,141.112 35.386,141.250 35.500 C 141.387 35.614,141.500 35.920,141.500 36.179 C 141.500 36.438,141.605 36.710,141.734 36.783 C 141.863 36.857,141.994 37.104,142.026 37.333 C 142.083 37.750,142.084 37.750,144.184 37.796 C 146.485 37.847,147.003 37.676,146.473 37.039 C 146.340 36.880,146.086 36.432,145.908 36.044 C 145.729 35.655,145.499 35.336,145.397 35.335 C 145.294 35.334,145.168 35.017,145.116 34.631 C 145.065 34.244,144.905 33.842,144.761 33.737 C 144.617 33.632,144.500 33.384,144.500 33.185 C 144.500 32.986,144.387 32.780,144.250 32.727 C 144.112 32.674,144.000 32.536,144.000 32.419 C 144.000 32.303,143.887 32.114,143.750 32.000 C 143.612 31.886,143.500 31.547,143.500 31.247 C 143.500 30.917,143.402 30.665,143.250 30.606 C 143.112 30.554,143.000 30.324,143.000 30.097 C 143.000 29.869,142.906 29.623,142.792 29.550 C 142.521 29.377,142.002 28.385,141.995 28.028 C 141.992 27.875,141.879 27.604,141.745 27.426 C 141.428 27.008,141.431 26.396,141.750 26.273 C 141.887 26.220,142.000 25.987,142.000 25.755 C 142.000 25.491,142.094 25.333,142.250 25.333 C 142.387 25.333,142.500 25.229,142.500 25.101 C 142.500 24.973,142.612 24.826,142.750 24.773 C 142.887 24.720,143.000 24.562,143.000 24.422 C 143.000 24.282,143.112 24.167,143.250 24.167 C 143.417 24.167,143.500 24.000,143.500 23.667 C 143.500 23.333,143.583 23.167,143.750 23.167 C 143.887 23.167,144.000 23.054,144.000 22.917 C 144.000 22.779,144.112 22.667,144.250 22.667 C 144.387 22.667,144.500 22.554,144.500 22.417 C 144.500 22.279,144.604 22.167,144.732 22.167 C 144.859 22.167,145.014 21.969,145.074 21.727 C 145.135 21.485,145.405 21.094,145.676 20.857 C 145.946 20.620,146.167 20.330,146.167 20.213 C 146.167 20.096,146.279 20.000,146.417 20.000 C 146.583 20.000,146.667 19.833,146.667 19.500 C 146.667 19.167,146.750 19.000,146.917 19.000 C 147.054 19.000,147.167 18.887,147.167 18.750 C 147.167 18.612,147.279 18.500,147.417 18.500 C 147.554 18.500,147.667 18.396,147.667 18.268 C 147.667 18.140,147.784 17.990,147.928 17.935 C 148.085 17.875,148.169 17.684,148.137 17.459 C 147.997 16.478,143.036 16.934,143.006 17.931 C 143.002 18.030,142.775 18.312,142.500 18.557 C 142.225 18.802,142.000 19.152,142.000 19.335 C 142.000 19.517,141.896 19.667,141.769 19.667 C 141.643 19.667,141.491 19.798,141.433 19.958 C 141.266 20.423,140.952 20.891,140.453 21.423 C 140.198 21.694,139.948 22.080,139.896 22.280 C 139.845 22.479,139.698 22.683,139.568 22.733 C 139.439 22.782,139.333 22.943,139.333 23.089 C 139.333 23.609,138.425 23.322,138.363 22.782 C 138.333 22.524,138.207 22.274,138.081 22.226 C 137.956 22.178,137.806 21.920,137.747 21.653 C 137.688 21.385,137.571 21.167,137.487 21.167 C 137.402 21.167,137.333 20.942,137.333 20.667 C 137.333 20.389,137.185 20.019,137.000 19.833 C 136.817 19.650,136.667 19.348,136.667 19.161 C 136.667 18.975,136.554 18.780,136.417 18.727 C 136.279 18.674,136.167 18.497,136.167 18.333 C 136.167 18.170,136.054 17.992,135.917 17.940 C 135.779 17.887,135.667 17.654,135.667 17.422 L 135.667 17.000 133.583 17.000 L 131.500 17.000 131.500 17.420 M185.506 17.322 C 185.411 17.500,185.333 17.837,185.333 18.072 C 185.333 18.308,185.256 18.500,185.161 18.500 C 185.067 18.500,184.940 18.631,184.879 18.792 C 184.818 18.952,184.671 19.182,184.551 19.304 C 184.431 19.425,184.333 19.659,184.333 19.825 C 184.333 19.990,184.221 20.219,184.083 20.333 C 183.946 20.447,183.833 20.794,183.833 21.104 C 183.833 21.493,183.756 21.667,183.583 21.667 C 183.446 21.667,183.333 21.807,183.333 21.980 C 183.333 22.152,183.221 22.386,183.083 22.500 C 182.946 22.614,182.833 22.839,182.833 23.000 C 182.833 23.161,182.726 23.382,182.594 23.491 C 182.462 23.600,182.303 23.924,182.240 24.210 C 182.177 24.497,182.023 24.834,181.896 24.961 C 181.770 25.087,181.667 25.327,181.667 25.494 C 181.667 25.661,181.554 25.841,181.417 25.894 C 181.279 25.946,181.167 26.133,181.167 26.308 C 181.167 26.483,181.054 26.719,180.917 26.833 C 180.779 26.947,180.667 27.249,180.667 27.503 C 180.667 27.759,180.556 28.007,180.417 28.060 C 180.279 28.113,180.167 28.338,180.167 28.560 C 180.167 28.783,180.054 29.008,179.917 29.060 C 179.779 29.113,179.667 29.338,179.667 29.560 C 179.667 29.783,179.554 30.008,179.417 30.060 C 179.271 30.116,179.167 30.366,179.167 30.661 C 179.167 30.939,179.088 31.167,178.991 31.167 C 178.895 31.167,178.738 31.392,178.642 31.667 C 178.546 31.942,178.408 32.167,178.335 32.167 C 178.262 32.167,178.153 32.363,178.093 32.603 C 178.033 32.844,177.875 33.149,177.742 33.282 C 177.609 33.415,177.500 33.697,177.500 33.908 C 177.500 34.120,177.387 34.386,177.250 34.500 C 177.112 34.614,177.000 34.840,177.000 35.003 C 177.000 35.165,176.887 35.341,176.750 35.394 C 176.612 35.446,176.500 35.671,176.500 35.894 C 176.500 36.116,176.387 36.341,176.250 36.394 C 176.085 36.457,176.000 36.718,176.000 37.161 L 176.000 37.833 177.866 37.833 C 179.866 37.833,180.667 37.488,180.667 36.624 C 180.667 36.451,180.779 36.197,180.917 36.060 C 181.054 35.922,181.167 35.552,181.167 35.238 C 181.167 34.841,181.243 34.667,181.417 34.667 C 181.556 34.667,181.667 34.519,181.667 34.333 C 181.667 34.150,181.740 34.000,181.830 34.000 C 181.920 34.000,182.045 33.794,182.108 33.543 C 182.328 32.667,182.380 32.656,186.117 32.705 C 189.569 32.750,189.584 32.752,189.637 33.125 C 189.666 33.331,189.751 33.500,189.825 33.500 C 189.900 33.500,190.014 34.139,190.079 34.920 C 190.146 35.728,190.292 36.435,190.418 36.561 C 190.540 36.683,190.664 37.000,190.695 37.266 L 190.750 37.750 192.750 37.750 C 194.730 37.750,194.751 37.746,194.806 37.353 C 194.899 36.697,194.673 35.833,194.409 35.833 C 194.229 35.833,194.167 35.618,194.167 35.000 C 194.167 34.370,194.106 34.167,193.917 34.167 C 193.716 34.167,193.667 33.910,193.667 32.854 C 193.667 31.890,193.600 31.486,193.417 31.333 C 193.258 31.202,193.167 30.834,193.167 30.325 C 193.167 29.835,193.070 29.427,192.917 29.274 C 192.779 29.136,192.667 28.761,192.667 28.440 C 192.667 28.120,192.554 27.745,192.417 27.607 C 192.251 27.442,192.167 27.026,192.167 26.377 C 192.167 25.773,192.073 25.273,191.922 25.074 C 191.787 24.896,191.675 24.448,191.672 24.079 C 191.669 23.710,191.565 23.260,191.441 23.079 C 191.317 22.898,191.172 22.414,191.118 22.004 C 191.065 21.593,190.942 21.231,190.844 21.198 C 190.747 21.166,190.666 20.789,190.666 20.361 C 190.665 19.449,190.386 18.333,190.159 18.333 C 190.071 18.333,190.000 18.033,190.000 17.667 L 190.000 17.000 187.839 17.000 C 185.873 17.000,185.663 17.029,185.506 17.322 M225.455 17.479 C 225.214 17.888,225.167 18.405,225.167 20.651 C 225.167 22.792,225.121 23.333,224.942 23.333 C 224.777 23.333,224.688 23.742,224.608 24.858 C 224.549 25.696,224.425 26.473,224.333 26.584 C 224.240 26.695,224.095 27.603,224.010 28.601 C 223.925 29.600,223.779 30.792,223.687 31.250 C 223.595 31.708,223.515 32.958,223.510 34.028 C 223.503 35.361,223.438 35.993,223.304 36.038 C 223.192 36.075,223.103 36.454,223.096 36.926 L 223.083 37.750 224.802 37.798 C 227.204 37.864,227.154 37.939,227.161 34.292 C 227.166 31.924,227.205 31.500,227.417 31.500 C 227.621 31.500,227.667 31.221,227.667 29.988 C 227.667 28.866,227.731 28.412,227.917 28.226 C 228.103 28.040,228.167 27.581,228.167 26.420 C 228.167 24.947,228.184 24.869,228.500 24.952 C 228.751 25.017,228.833 25.179,228.833 25.608 C 228.833 25.960,228.929 26.214,229.083 26.273 C 229.226 26.328,229.333 26.576,229.333 26.851 C 229.333 27.169,229.419 27.333,229.583 27.333 C 229.769 27.333,229.833 27.528,229.833 28.089 C 229.833 28.606,229.912 28.874,230.083 28.940 C 230.222 28.993,230.333 29.241,230.333 29.497 C 230.333 29.751,230.446 30.053,230.583 30.167 C 230.721 30.281,230.833 30.506,230.833 30.667 C 230.833 30.828,230.946 31.053,231.083 31.167 C 231.221 31.281,231.336 31.609,231.339 31.895 C 231.342 32.182,231.490 32.717,231.667 33.083 C 231.844 33.450,231.991 33.844,231.994 33.958 C 231.997 34.073,232.112 34.167,232.250 34.167 C 232.387 34.167,232.500 34.279,232.500 34.417 C 232.500 34.554,232.612 34.667,232.750 34.667 C 232.887 34.667,233.000 34.779,233.000 34.917 C 233.000 35.111,233.222 35.167,234.000 35.167 C 234.778 35.167,235.000 35.111,235.000 34.917 C 235.000 34.779,235.112 34.667,235.250 34.667 C 235.387 34.667,235.500 34.554,235.500 34.417 C 235.500 34.279,235.612 34.167,235.750 34.167 C 235.887 34.167,236.000 34.054,236.000 33.917 C 236.000 33.779,236.077 33.667,236.170 33.667 C 236.264 33.667,236.431 33.460,236.542 33.208 C 236.653 32.956,236.951 32.457,237.205 32.100 C 237.459 31.742,237.667 31.357,237.667 31.243 C 237.667 31.129,237.779 30.992,237.917 30.940 C 238.054 30.887,238.170 30.673,238.174 30.464 C 238.178 30.252,238.399 29.902,238.674 29.674 C 239.005 29.400,239.167 29.113,239.167 28.799 C 239.167 28.496,239.254 28.333,239.417 28.333 C 239.559 28.333,239.667 28.184,239.667 27.986 C 239.667 27.795,239.929 27.384,240.250 27.072 C 240.571 26.761,240.833 26.401,240.833 26.273 C 240.833 26.145,240.946 25.947,241.083 25.833 C 241.221 25.719,241.333 25.448,241.333 25.230 C 241.333 24.988,241.431 24.833,241.583 24.833 C 241.751 24.833,241.833 25.001,241.833 25.345 C 241.833 25.627,241.721 25.970,241.583 26.107 C 241.401 26.289,241.333 26.733,241.333 27.743 C 241.333 28.648,241.247 29.294,241.084 29.606 C 240.895 29.970,240.835 30.704,240.834 32.691 C 240.834 34.854,240.791 35.314,240.583 35.394 C 240.394 35.466,240.333 35.774,240.333 36.667 L 240.333 37.845 242.125 37.797 L 243.917 37.750 244.048 37.000 C 244.403 34.975,244.473 34.284,244.491 32.667 C 244.505 31.411,244.580 30.825,244.755 30.593 C 244.925 30.368,245.000 29.843,245.000 28.873 C 245.000 27.854,245.068 27.409,245.250 27.226 C 245.436 27.040,245.500 26.581,245.500 25.424 C 245.500 24.371,245.580 23.718,245.749 23.394 C 245.937 23.034,245.998 22.315,245.999 20.476 C 246.000 18.413,246.040 18.020,246.262 17.935 C 246.419 17.875,246.502 17.684,246.470 17.459 C 246.345 16.576,241.833 16.923,241.833 17.816 C 241.833 17.897,241.721 18.008,241.583 18.060 C 241.446 18.113,241.333 18.262,241.333 18.391 C 241.333 18.520,241.221 18.719,241.083 18.833 C 240.946 18.947,240.833 19.294,240.833 19.604 C 240.833 19.993,240.756 20.167,240.583 20.167 C 240.446 20.167,240.333 20.279,240.333 20.417 C 240.333 20.554,240.230 20.667,240.103 20.667 C 239.976 20.667,239.831 20.798,239.780 20.958 C 239.667 21.312,239.161 22.156,238.875 22.465 C 238.760 22.589,238.667 22.800,238.667 22.934 C 238.667 23.068,238.554 23.220,238.417 23.273 C 238.279 23.326,238.167 23.441,238.167 23.530 C 238.167 23.618,238.054 23.803,237.917 23.940 C 237.779 24.078,237.667 24.335,237.667 24.512 C 237.667 24.689,237.596 24.833,237.509 24.833 C 237.359 24.833,237.049 25.315,236.679 26.125 C 236.585 26.331,236.431 26.500,236.337 26.500 C 236.244 26.500,236.167 26.725,236.167 27.000 C 236.167 27.333,236.083 27.500,235.917 27.500 C 235.779 27.500,235.667 27.613,235.667 27.750 C 235.667 27.887,235.590 28.000,235.496 28.000 C 235.403 28.000,235.235 28.206,235.123 28.458 C 234.714 29.384,234.000 29.422,234.000 28.518 C 234.000 28.319,233.887 28.113,233.750 28.060 C 233.582 27.996,233.500 27.732,233.500 27.253 C 233.500 26.823,233.401 26.458,233.250 26.333 C 233.112 26.219,233.000 25.985,233.000 25.812 C 233.000 25.640,232.850 25.219,232.667 24.877 C 232.483 24.535,232.333 24.160,232.333 24.044 C 232.333 23.928,232.221 23.833,232.083 23.833 C 231.895 23.833,231.833 23.632,231.833 23.018 C 231.833 22.447,231.758 22.174,231.583 22.106 C 231.440 22.052,231.333 21.803,231.333 21.526 C 231.333 21.259,231.221 20.947,231.083 20.833 C 230.946 20.719,230.833 20.445,230.833 20.224 C 230.833 20.004,230.721 19.780,230.583 19.727 C 230.414 19.662,230.333 19.397,230.333 18.907 C 230.333 18.460,230.244 18.132,230.099 18.050 C 229.971 17.977,229.839 17.729,229.808 17.500 C 229.750 17.085,229.742 17.083,227.747 17.037 L 225.744 16.990 225.455 17.479 M277.938 17.375 C 277.883 17.581,277.837 18.204,277.836 18.758 C 277.834 19.313,277.744 19.856,277.635 19.965 C 277.522 20.078,277.404 20.831,277.363 21.699 C 277.315 22.690,277.208 23.315,277.061 23.462 C 276.905 23.618,276.833 24.124,276.833 25.062 C 276.833 25.937,276.758 26.509,276.625 26.641 C 276.479 26.787,276.400 27.716,276.361 29.749 C 276.318 31.997,276.253 32.693,276.070 32.845 C 275.899 32.987,275.833 33.444,275.833 34.500 C 275.833 35.614,275.772 36.010,275.575 36.174 C 275.400 36.318,275.333 36.608,275.367 37.069 L 275.417 37.750 277.444 37.797 L 279.472 37.843 279.553 36.713 C 279.597 36.092,279.711 35.208,279.807 34.750 C 279.902 34.292,279.985 33.185,279.990 32.292 C 280.004 29.973,279.966 30.000,283.172 30.000 C 285.245 30.000,285.694 29.957,285.773 29.750 C 285.838 29.582,286.102 29.500,286.581 29.500 C 287.010 29.500,287.375 29.401,287.500 29.250 C 287.614 29.113,287.782 29.000,287.873 29.000 C 288.101 29.000,289.333 27.750,289.333 27.520 C 289.333 27.417,289.448 27.333,289.589 27.333 C 289.729 27.333,289.893 27.202,289.954 27.042 C 290.015 26.881,290.163 26.651,290.282 26.530 C 290.402 26.409,290.500 25.985,290.500 25.589 C 290.500 25.103,290.581 24.838,290.750 24.773 C 291.109 24.635,291.114 20.881,290.755 20.407 C 290.621 20.229,290.508 19.890,290.505 19.654 C 290.500 19.219,289.893 18.500,289.531 18.500 C 289.422 18.500,289.333 18.387,289.333 18.250 C 289.333 18.112,289.221 18.000,289.083 18.000 C 288.946 18.000,288.833 17.887,288.833 17.750 C 288.833 17.612,288.729 17.500,288.601 17.500 C 288.473 17.500,288.326 17.387,288.273 17.250 C 288.191 17.035,287.460 17.000,283.108 17.000 L 278.039 17.000 277.938 17.375 M327.104 17.521 C 327.047 17.807,327.000 18.505,327.000 19.071 C 327.000 19.656,326.913 20.187,326.797 20.303 C 326.686 20.414,326.543 21.198,326.480 22.044 C 326.417 22.891,326.287 23.921,326.190 24.333 C 326.093 24.746,326.011 26.068,326.007 27.271 C 326.002 29.006,325.948 29.502,325.750 29.667 C 325.564 29.821,325.499 30.242,325.495 31.312 C 325.491 32.311,325.415 32.849,325.245 33.074 C 325.070 33.304,325.000 33.842,325.000 34.949 C 325.000 35.802,324.933 36.500,324.851 36.500 C 324.770 36.500,324.652 36.703,324.589 36.952 C 324.371 37.823,324.510 37.842,330.993 37.794 L 336.917 37.750 336.967 36.598 C 337.031 35.101,337.235 35.172,332.875 35.169 L 329.167 35.167 329.167 34.533 C 329.167 34.185,329.260 33.806,329.375 33.692 C 329.520 33.547,329.600 32.640,329.639 30.700 C 329.683 28.520,329.747 27.888,329.931 27.783 C 330.108 27.683,330.167 27.261,330.167 26.095 C 330.167 24.917,330.227 24.491,330.417 24.333 C 330.606 24.176,330.668 23.739,330.672 22.521 C 330.676 21.375,330.747 20.824,330.922 20.593 C 331.099 20.360,331.167 19.814,331.167 18.635 L 331.167 17.000 329.188 17.000 L 327.208 17.000 327.104 17.521 M374.367 17.200 C 374.232 17.334,374.167 18.089,374.167 19.500 C 374.167 20.958,374.103 21.664,373.958 21.808 C 373.819 21.948,373.731 22.756,373.692 24.258 C 373.649 25.932,373.580 26.500,373.422 26.500 C 373.274 26.500,373.173 26.968,373.090 28.042 C 373.024 28.890,372.895 29.674,372.803 29.785 C 372.712 29.896,372.576 31.021,372.502 32.285 C 372.427 33.549,372.275 35.199,372.162 35.951 C 371.853 38.029,371.189 37.833,378.560 37.833 C 385.812 37.833,385.167 37.979,385.167 36.338 C 385.167 35.095,385.458 35.167,380.403 35.167 L 376.167 35.167 376.167 34.684 C 376.167 34.410,376.274 34.161,376.417 34.106 C 376.614 34.031,376.667 33.682,376.667 32.440 C 376.667 31.197,376.719 30.849,376.917 30.773 C 377.071 30.714,377.167 30.460,377.167 30.109 C 377.167 29.797,377.214 29.307,377.271 29.021 L 377.375 28.500 380.615 28.500 C 384.573 28.500,384.500 28.528,384.500 26.994 L 384.500 25.833 380.917 25.833 L 377.333 25.833 377.333 25.283 C 377.333 24.981,377.423 24.644,377.532 24.535 C 377.645 24.422,377.762 23.669,377.803 22.793 C 377.847 21.868,377.968 21.118,378.105 20.921 C 378.230 20.740,378.333 20.347,378.333 20.046 L 378.333 19.500 382.750 19.500 L 387.167 19.500 387.167 18.250 L 387.167 17.000 380.867 17.000 C 376.189 17.000,374.515 17.051,374.367 17.200 M284.388 19.734 C 284.437 19.863,284.726 20.018,285.030 20.077 C 285.782 20.225,286.333 20.514,286.333 20.760 C 286.333 20.873,286.446 21.008,286.583 21.060 C 286.721 21.113,286.833 21.271,286.833 21.411 C 286.833 21.552,286.946 21.667,287.083 21.667 C 287.279 21.667,287.333 21.896,287.333 22.732 C 287.333 23.526,287.269 23.822,287.083 23.894 C 286.946 23.946,286.833 24.179,286.833 24.411 C 286.833 24.643,286.762 24.833,286.676 24.833 C 286.520 24.833,286.109 25.475,285.901 26.042 C 285.835 26.224,285.621 26.333,285.332 26.333 C 285.074 26.333,284.826 26.444,284.773 26.583 C 284.719 26.724,284.471 26.833,284.204 26.833 C 283.943 26.833,283.585 26.943,283.407 27.078 C 283.202 27.233,282.687 27.325,282.000 27.328 L 280.917 27.334 280.975 25.042 C 281.008 23.781,281.109 22.609,281.201 22.437 C 281.293 22.265,281.408 21.534,281.458 20.812 L 281.548 19.500 282.923 19.500 C 283.950 19.500,284.320 19.559,284.388 19.734 M187.500 23.396 C 187.500 23.841,187.597 24.207,187.750 24.333 C 187.910 24.466,188.000 24.835,188.000 25.359 C 188.000 25.932,188.075 26.206,188.250 26.273 C 188.441 26.346,188.500 26.661,188.500 27.612 C 188.500 28.296,188.578 29.000,188.673 29.178 C 188.839 29.489,188.767 29.500,186.522 29.500 L 184.198 29.500 184.290 28.792 C 184.341 28.402,184.484 28.023,184.608 27.950 C 184.732 27.877,184.833 27.740,184.833 27.646 C 184.833 27.553,184.946 27.364,185.083 27.226 C 185.221 27.089,185.333 26.841,185.333 26.675 C 185.333 26.510,185.446 26.281,185.583 26.167 C 185.721 26.053,185.833 25.714,185.833 25.414 C 185.833 25.083,185.932 24.831,186.083 24.773 C 186.221 24.720,186.333 24.505,186.333 24.295 C 186.333 24.085,186.483 23.820,186.667 23.705 C 186.855 23.588,187.000 23.317,187.000 23.082 C 187.000 22.824,187.095 22.667,187.250 22.667 C 187.434 22.667,187.500 22.859,187.500 23.396 M13.000 30.583 C 12.882 30.725,12.823 30.879,12.869 30.925 C 12.915 30.971,13.049 30.892,13.167 30.750 C 13.284 30.608,13.343 30.454,13.298 30.409 C 13.252 30.363,13.118 30.441,13.000 30.583 M26.625 32.792 C 29.215 32.817,33.452 32.817,36.042 32.792 C 38.631 32.766,36.512 32.745,31.333 32.745 C 26.154 32.745,24.035 32.766,26.625 32.792 M40.901 32.859 C 40.830 32.974,40.855 33.006,40.963 32.940 C 41.062 32.878,41.191 32.904,41.248 32.997 C 41.306 33.090,41.466 33.167,41.603 33.167 C 41.741 33.167,41.806 33.090,41.748 32.997 C 41.691 32.904,41.574 32.871,41.488 32.924 C 41.403 32.977,41.333 32.940,41.333 32.843 C 41.333 32.608,41.050 32.618,40.901 32.859 M12.410 33.344 C 12.349 33.442,12.340 33.562,12.389 33.611 C 12.508 33.730,12.833 33.520,12.833 33.323 C 12.833 33.111,12.546 33.125,12.410 33.344 M42.251 35.166 C 42.187 35.269,42.098 35.582,42.054 35.861 C 41.950 36.523,42.268 36.341,42.420 35.653 C 42.538 35.114,42.446 34.849,42.251 35.166 M41.611 37.611 C 41.550 37.672,41.500 37.866,41.500 38.042 C 41.500 38.483,41.912 38.312,41.936 37.861 C 41.954 37.501,41.822 37.400,41.611 37.611 M19.725 40.793 C 19.786 40.891,19.751 41.000,19.649 41.034 C 19.546 41.068,19.489 41.239,19.523 41.413 C 19.576 41.686,19.612 41.668,19.786 41.288 C 19.933 40.965,19.937 40.814,19.801 40.730 C 19.694 40.664,19.662 40.690,19.725 40.793 M8.902 51.125 C 8.967 51.240,8.940 51.333,8.843 51.333 C 8.746 51.333,8.667 51.462,8.667 51.619 C 8.667 51.888,8.683 51.888,8.951 51.620 C 9.189 51.382,9.199 51.302,9.010 51.126 C 8.832 50.961,8.809 50.960,8.902 51.125 M17.500 51.583 C 17.500 51.721,17.579 51.833,17.677 51.833 C 17.774 51.833,17.811 51.765,17.759 51.681 C 17.707 51.597,17.759 51.490,17.874 51.444 C 18.000 51.393,17.968 51.354,17.792 51.346 C 17.631 51.339,17.500 51.446,17.500 51.583 M17.111 54.278 C 16.933 54.456,16.983 54.863,17.169 54.748 C 17.263 54.691,17.300 54.580,17.252 54.503 C 17.204 54.425,17.259 54.324,17.374 54.277 C 17.490 54.231,17.503 54.187,17.403 54.180 C 17.303 54.173,17.172 54.217,17.111 54.278 M41.802 61.097 C 42.017 61.511,42.500 61.940,42.500 61.716 C 42.500 61.629,42.302 61.376,42.061 61.154 C 41.669 60.794,41.641 60.787,41.802 61.097 M42.245 63.342 C 42.072 63.621,42.014 64.511,42.174 64.412 C 42.338 64.311,42.563 63.341,42.449 63.227 C 42.404 63.182,42.312 63.233,42.245 63.342 M41.656 66.083 C 41.647 66.175,41.603 66.474,41.559 66.747 C 41.472 67.281,41.520 67.279,41.799 66.741 C 41.910 66.528,41.919 66.308,41.824 66.158 C 41.740 66.025,41.664 65.992,41.656 66.083 M60.445 67.642 C 60.493 67.826,60.649 68.021,60.790 68.076 C 61.163 68.219,61.149 68.133,60.730 67.695 C 60.388 67.339,60.365 67.334,60.445 67.642 " stroke="none" fill="#6c6c6c" fill-rule="evenodd"></path><path id="path2" d="M60.557 5.242 C 60.612 5.384,60.584 5.500,60.495 5.500 C 60.302 5.500,60.266 66.772,60.458 66.891 C 60.527 66.933,60.583 53.232,60.582 36.442 L 60.581 5.917 60.667 36.167 L 60.753 66.417 60.752 35.958 C 60.751 19.206,60.811 5.500,60.885 5.500 C 60.959 5.500,60.963 5.406,60.895 5.292 C 60.822 5.170,60.900 5.188,61.083 5.333 C 61.266 5.479,61.345 5.496,61.272 5.375 C 61.203 5.260,61.226 5.167,61.323 5.167 C 61.421 5.167,61.500 5.244,61.500 5.339 C 61.500 5.458,61.601 5.458,61.823 5.339 C 62.306 5.080,62.471 5.485,62.029 5.843 C 61.726 6.089,61.711 6.148,61.933 6.233 C 62.333 6.387,62.623 6.354,62.357 6.185 C 62.200 6.085,62.187 6.007,62.316 5.928 C 62.604 5.749,62.532 5.197,62.208 5.114 C 61.416 4.909,60.458 4.984,60.557 5.242 M18.195 6.781 C 17.907 7.318,17.958 7.634,18.262 7.199 C 18.407 6.993,18.494 6.733,18.457 6.621 C 18.416 6.498,18.312 6.562,18.195 6.781 M35.417 6.667 C 26.433 6.714,19.219 6.771,19.385 6.793 C 19.551 6.815,19.640 6.908,19.583 7.000 C 19.515 7.111,24.823 7.173,35.365 7.186 C 52.021 7.206,52.153 7.208,52.334 7.501 C 52.396 7.602,52.549 7.662,52.674 7.634 C 52.799 7.606,52.914 7.677,52.930 7.792 C 52.946 7.906,52.976 8.056,52.998 8.125 C 53.020 8.194,53.028 8.400,53.015 8.583 L 52.991 8.917 53.197 8.583 C 53.612 7.913,53.348 6.836,52.708 6.590 C 52.584 6.543,52.529 6.578,52.585 6.669 C 52.641 6.759,52.607 6.833,52.510 6.833 C 52.413 6.833,52.333 6.758,52.333 6.667 C 52.333 6.575,52.202 6.518,52.042 6.540 C 51.881 6.563,44.400 6.619,35.417 6.667 M17.597 7.940 C 17.544 8.080,17.500 8.603,17.500 9.103 C 17.500 9.618,17.395 10.172,17.257 10.382 C 17.124 10.586,17.023 11.014,17.033 11.334 C 17.054 11.984,16.922 12.722,16.730 13.033 C 16.660 13.146,16.542 13.578,16.468 13.994 C 16.323 14.803,16.213 15.250,16.158 15.250 C 16.140 15.250,16.109 15.600,16.090 16.029 C 16.071 16.457,15.943 16.982,15.806 17.195 C 15.669 17.409,15.538 18.033,15.515 18.582 C 15.491 19.131,15.385 19.637,15.278 19.705 C 15.171 19.773,15.149 19.829,15.229 19.831 C 15.309 19.832,15.281 19.946,15.167 20.083 C 14.810 20.514,15.254 20.356,15.636 19.917 C 15.835 19.687,15.952 19.500,15.895 19.500 C 15.839 19.500,15.883 19.391,15.994 19.257 C 16.105 19.124,16.147 18.936,16.088 18.841 C 16.029 18.745,16.071 18.667,16.182 18.667 C 16.293 18.667,16.211 18.517,16.000 18.333 C 15.646 18.027,15.727 17.899,16.221 17.984 C 16.296 17.998,16.314 17.937,16.260 17.849 C 16.206 17.761,16.239 17.642,16.333 17.583 C 16.428 17.525,16.462 17.407,16.410 17.322 C 16.357 17.236,16.412 17.166,16.532 17.164 C 16.707 17.162,16.708 17.135,16.538 17.027 C 16.267 16.855,16.128 16.167,16.363 16.167 C 16.473 16.167,16.458 16.067,16.326 15.907 C 16.148 15.693,16.151 15.657,16.347 15.699 C 16.498 15.731,16.570 15.629,16.547 15.417 C 16.526 15.233,16.551 15.177,16.602 15.292 C 16.713 15.543,17.000 15.569,17.000 15.328 C 17.000 15.233,16.834 15.095,16.631 15.019 L 16.262 14.883 16.609 14.697 C 16.800 14.595,17.016 14.565,17.088 14.631 C 17.161 14.696,17.166 14.656,17.100 14.542 C 17.034 14.427,17.060 14.333,17.157 14.333 C 17.254 14.333,17.333 14.413,17.333 14.510 C 17.333 14.607,17.418 14.634,17.521 14.570 C 17.652 14.489,17.632 14.411,17.457 14.313 C 17.267 14.206,17.221 13.954,17.270 13.294 C 17.366 12.017,17.370 12.000,17.596 12.000 C 17.849 12.000,17.719 11.365,17.386 10.979 C 17.164 10.722,17.460 10.394,17.850 10.465 C 17.905 10.475,17.913 10.289,17.868 10.050 C 17.811 9.752,17.845 9.654,17.976 9.735 C 18.232 9.893,18.219 9.620,17.958 9.355 C 17.791 9.185,17.798 9.153,17.992 9.196 C 18.126 9.226,18.248 9.156,18.263 9.042 C 18.279 8.927,18.306 8.740,18.324 8.625 C 18.342 8.510,18.421 8.567,18.500 8.750 C 18.637 9.068,18.644 9.066,18.655 8.708 C 18.661 8.502,18.587 8.333,18.490 8.333 C 18.393 8.333,18.353 8.269,18.402 8.191 C 18.450 8.113,18.311 7.967,18.092 7.868 C 17.774 7.723,17.675 7.737,17.597 7.940 M52.541 8.928 C 52.413 9.067,52.369 9.379,52.427 9.743 C 52.491 10.150,52.457 10.333,52.316 10.333 C 52.203 10.333,52.155 10.378,52.210 10.432 C 52.500 10.723,52.947 10.296,52.969 9.706 C 52.998 8.921,52.830 8.617,52.541 8.928 M52.625 10.732 C 52.455 10.902,52.308 10.918,52.072 10.793 C 51.807 10.652,51.787 10.661,51.958 10.844 C 52.213 11.116,52.231 11.500,51.990 11.500 C 51.893 11.500,51.867 11.413,51.933 11.308 C 52.002 11.195,51.979 11.160,51.876 11.224 C 51.780 11.283,51.712 11.623,51.725 11.978 C 51.743 12.445,51.690 12.601,51.535 12.542 C 51.417 12.496,51.332 12.525,51.346 12.605 C 51.419 13.005,51.315 13.342,51.150 13.240 C 51.021 13.160,51.023 13.231,51.156 13.480 C 51.619 14.345,52.485 13.352,52.442 12.004 C 52.425 11.476,52.480 11.233,52.604 11.281 C 52.707 11.320,52.827 11.161,52.872 10.926 C 52.966 10.435,52.942 10.416,52.625 10.732 M24.262 13.314 C 24.211 13.396,24.275 13.549,24.402 13.655 C 24.600 13.819,24.599 13.917,24.397 14.324 C 24.266 14.586,24.165 15.014,24.172 15.275 C 24.179 15.536,24.147 16.031,24.101 16.375 C 24.029 16.912,24.063 17.000,24.342 17.000 C 24.604 17.000,24.669 16.879,24.679 16.375 C 24.686 16.031,24.722 15.585,24.760 15.383 C 24.798 15.182,24.743 14.964,24.639 14.899 C 24.512 14.821,24.493 14.860,24.582 15.016 C 24.677 15.182,24.662 15.201,24.530 15.080 C 24.428 14.987,24.388 14.743,24.442 14.539 C 24.552 14.115,24.833 14.034,24.833 14.427 C 24.833 14.569,24.908 14.640,25.000 14.583 C 25.092 14.527,25.167 14.295,25.167 14.068 C 25.167 13.796,25.291 13.610,25.533 13.520 C 25.889 13.389,25.886 13.382,25.455 13.300 C 25.210 13.253,25.050 13.279,25.098 13.357 C 25.147 13.436,25.107 13.500,25.010 13.500 C 24.913 13.500,24.833 13.425,24.833 13.333 C 24.833 13.127,24.387 13.112,24.262 13.314 M50.545 13.376 C 50.646 13.640,49.822 13.659,38.047 13.665 C 31.113 13.668,25.404 13.707,25.359 13.752 C 25.314 13.797,31.023 13.833,38.046 13.833 C 50.698 13.833,51.213 13.813,50.701 13.339 C 50.467 13.122,50.449 13.126,50.545 13.376 M23.952 17.292 C 23.915 17.360,23.902 17.642,23.923 17.917 C 23.969 18.532,23.692 18.961,23.460 18.633 C 23.359 18.492,23.342 18.580,23.410 18.889 C 23.477 19.196,23.453 19.324,23.340 19.254 C 23.239 19.192,23.167 19.310,23.167 19.540 C 23.167 19.756,23.073 20.030,22.958 20.148 C 22.790 20.321,22.814 20.352,23.083 20.310 C 23.267 20.282,23.506 20.315,23.616 20.383 C 23.750 20.467,23.873 20.301,23.990 19.879 C 24.215 19.070,24.213 18.785,23.983 18.927 C 23.882 18.990,23.929 18.842,24.089 18.599 C 24.248 18.355,24.336 18.113,24.283 18.061 C 24.231 18.009,24.256 17.786,24.340 17.566 C 24.485 17.185,24.141 16.942,23.952 17.292 M23.333 20.743 C 23.333 20.976,23.258 21.167,23.167 21.167 C 22.891 21.167,22.978 21.595,23.316 21.901 C 23.621 22.177,23.634 22.161,23.691 21.448 C 23.727 21.000,23.668 20.633,23.542 20.515 C 23.379 20.362,23.333 20.412,23.333 20.743 M14.974 21.319 C 14.930 21.945,14.964 22.099,15.118 21.972 C 15.228 21.880,15.378 21.841,15.451 21.886 C 15.524 21.930,15.589 21.712,15.596 21.400 C 15.605 20.991,15.535 20.833,15.346 20.831 C 15.115 20.829,15.114 20.808,15.333 20.667 C 15.550 20.527,15.547 20.505,15.308 20.503 C 15.096 20.501,15.019 20.690,14.974 21.319 M22.997 22.099 C 22.996 22.296,22.948 22.345,22.872 22.227 C 22.783 22.088,22.694 22.097,22.543 22.260 C 22.430 22.382,22.398 22.520,22.472 22.566 C 22.636 22.667,22.619 24.103,22.452 24.270 C 22.387 24.336,22.334 24.545,22.336 24.736 C 22.338 25.021,22.367 25.039,22.500 24.833 C 22.638 24.620,22.662 24.626,22.664 24.875 C 22.666 25.035,22.604 25.167,22.528 25.167 C 22.234 25.167,22.406 25.601,22.709 25.624 C 22.924 25.640,22.998 25.569,22.936 25.407 C 22.885 25.275,22.899 25.167,22.967 25.167 C 23.035 25.167,23.110 24.700,23.134 24.129 C 23.158 23.558,23.284 22.929,23.414 22.731 C 23.624 22.410,23.615 22.338,23.325 22.076 C 23.014 21.794,23.000 21.795,22.997 22.099 M14.917 22.342 C 14.733 22.416,14.649 22.482,14.729 22.488 C 14.809 22.495,14.800 22.594,14.710 22.708 C 14.380 23.128,14.327 24.167,14.635 24.164 C 14.875 24.162,14.880 24.138,14.670 24.006 C 14.474 23.882,14.543 23.798,15.003 23.598 C 15.410 23.422,15.484 23.344,15.250 23.337 C 15.053 23.332,14.991 23.278,15.098 23.206 C 15.627 22.848,15.474 22.118,14.917 22.342 M15.005 24.875 C 14.922 25.081,14.850 25.156,14.844 25.042 C 14.838 24.927,14.715 24.833,14.571 24.833 C 14.176 24.833,14.357 25.375,14.773 25.438 C 15.058 25.481,15.145 25.392,15.203 24.996 C 15.289 24.406,15.213 24.359,15.005 24.875 M13.853 26.799 C 13.818 27.671,13.836 27.722,14.060 27.418 C 14.195 27.235,14.238 27.044,14.157 26.994 C 14.076 26.944,14.045 26.705,14.089 26.462 C 14.133 26.220,14.106 25.982,14.030 25.935 C 13.953 25.887,13.873 26.276,13.853 26.799 M22.417 26.500 C 22.358 26.683,22.208 26.833,22.082 26.833 C 21.956 26.833,21.799 26.920,21.734 27.026 C 21.657 27.151,21.689 27.173,21.825 27.088 C 21.980 26.993,22.006 27.052,21.923 27.312 C 21.858 27.518,21.883 27.667,21.983 27.667 C 22.094 27.667,22.104 27.801,22.011 28.042 C 21.931 28.248,21.786 28.399,21.689 28.377 C 21.592 28.355,21.555 28.449,21.607 28.585 C 21.660 28.722,21.614 28.833,21.505 28.833 C 21.384 28.833,21.326 29.043,21.355 29.377 C 21.380 29.677,21.337 30.026,21.258 30.153 C 21.161 30.311,21.177 30.347,21.308 30.266 C 21.648 30.055,21.516 30.637,21.168 30.880 C 20.985 31.009,20.886 31.164,20.948 31.226 C 21.011 31.288,21.076 31.694,21.093 32.128 C 21.117 32.716,21.089 32.821,20.984 32.542 C 20.907 32.335,20.796 32.167,20.738 32.167 C 20.679 32.167,20.674 32.279,20.727 32.417 C 20.780 32.554,20.753 32.667,20.667 32.667 C 20.581 32.667,20.555 32.783,20.610 32.926 C 20.665 33.069,20.809 33.148,20.930 33.101 C 21.069 33.048,21.116 33.105,21.058 33.257 C 20.932 33.583,21.395 33.735,21.820 33.507 C 22.060 33.379,22.167 33.376,22.167 33.499 C 22.167 33.623,25.027 33.662,31.651 33.630 C 36.867 33.604,41.104 33.634,41.065 33.696 C 40.975 33.842,41.619 34.049,41.805 33.934 C 41.883 33.886,41.956 34.109,41.968 34.430 C 41.983 34.829,41.930 34.976,41.800 34.896 C 41.675 34.819,41.646 34.873,41.716 35.056 C 41.775 35.209,41.745 35.333,41.650 35.333 C 41.554 35.333,41.524 35.479,41.582 35.661 C 41.661 35.912,41.592 36.012,41.287 36.089 C 40.777 36.217,40.762 36.667,41.268 36.667 C 41.476 36.667,41.693 36.741,41.749 36.831 C 41.809 36.929,41.734 36.951,41.563 36.886 C 41.344 36.802,41.301 36.841,41.380 37.049 C 41.438 37.200,41.412 37.368,41.323 37.423 C 41.234 37.478,41.214 37.612,41.279 37.720 C 41.355 37.846,41.301 37.839,41.130 37.700 C 40.963 37.565,40.825 37.546,40.761 37.648 C 40.705 37.739,40.792 37.890,40.955 37.985 C 41.233 38.147,41.232 38.157,40.938 38.162 C 40.696 38.166,40.668 38.217,40.811 38.390 C 40.914 38.513,40.944 38.667,40.878 38.733 C 40.813 38.798,40.755 39.091,40.749 39.384 C 40.737 39.928,40.248 40.160,39.961 39.756 C 39.882 39.645,39.838 39.657,39.836 39.792 C 39.834 39.906,39.646 40.000,39.417 40.000 C 39.188 40.000,39.000 40.075,39.000 40.167 C 39.000 40.258,38.621 40.333,38.157 40.333 C 37.637 40.333,37.353 40.269,37.417 40.167 C 37.484 40.057,36.141 40.000,33.510 40.000 C 30.948 40.000,29.500 40.060,29.500 40.167 C 29.500 40.258,29.162 40.333,28.750 40.333 C 28.337 40.333,28.000 40.258,28.000 40.167 C 28.000 40.061,26.750 40.000,24.583 40.000 C 22.138 40.000,21.167 40.054,21.167 40.190 C 21.167 40.319,20.907 40.349,20.355 40.284 C 19.613 40.196,19.528 40.222,19.359 40.594 C 19.257 40.817,19.238 41.000,19.316 41.000 C 19.492 41.000,19.856 40.579,19.762 40.485 C 19.725 40.447,24.319 40.438,29.972 40.463 C 40.485 40.511,41.000 40.494,41.000 40.098 C 41.000 39.972,41.099 39.831,41.221 39.784 C 41.362 39.730,41.456 39.354,41.480 38.746 C 41.501 38.222,41.622 37.633,41.747 37.438 C 41.873 37.243,41.994 36.671,42.015 36.167 C 42.036 35.662,42.120 35.163,42.202 35.056 C 42.428 34.761,42.542 33.954,42.341 34.079 C 42.240 34.141,42.211 34.078,42.270 33.925 C 42.324 33.783,42.286 33.667,42.184 33.667 C 42.083 33.667,42.000 33.563,42.000 33.436 C 42.000 33.050,41.283 33.021,31.125 33.001 C 21.276 32.982,20.927 32.962,21.449 32.440 C 21.590 32.299,21.667 31.929,21.704 31.208 C 21.720 30.910,21.788 30.667,21.856 30.667 C 21.924 30.667,21.985 30.535,21.992 30.375 C 22.050 29.051,22.163 28.289,22.330 28.088 C 22.438 27.958,22.552 27.472,22.583 27.009 C 22.643 26.116,22.590 25.954,22.417 26.500 M13.654 28.098 C 13.533 28.244,13.406 28.863,13.372 29.473 C 13.336 30.121,13.211 30.692,13.072 30.846 C 12.798 31.148,12.753 31.667,13.000 31.667 C 13.092 31.667,13.167 31.554,13.167 31.417 C 13.167 31.279,13.260 31.185,13.375 31.208 C 13.490 31.231,13.562 31.148,13.536 31.024 C 13.510 30.900,13.585 30.679,13.702 30.534 C 13.866 30.332,13.867 30.299,13.708 30.395 C 13.594 30.463,13.500 30.440,13.500 30.343 C 13.500 30.246,13.608 30.167,13.740 30.167 C 14.145 30.167,14.238 29.794,13.902 29.515 C 13.507 29.187,13.419 28.600,13.785 28.740 C 13.960 28.808,14.008 28.760,13.940 28.585 C 13.887 28.447,13.904 28.333,13.977 28.333 C 14.051 28.333,14.111 28.221,14.111 28.083 C 14.111 27.759,13.931 27.765,13.654 28.098 M13.164 31.774 C 12.989 31.822,12.905 32.075,12.892 32.594 C 12.882 33.036,12.761 33.471,12.599 33.649 C 12.175 34.118,12.300 34.999,12.785 34.959 C 13.204 34.924,13.257 34.823,12.993 34.560 C 12.872 34.439,12.897 34.321,13.073 34.175 C 13.258 34.022,13.282 33.883,13.164 33.661 C 12.984 33.325,13.107 32.833,13.372 32.833 C 13.470 32.833,13.454 32.729,13.335 32.585 C 13.093 32.293,13.481 32.060,13.925 32.230 C 14.074 32.287,14.141 32.259,14.082 32.165 C 14.026 32.074,13.830 32.000,13.647 32.000 C 13.464 32.000,13.360 31.925,13.417 31.833 C 13.473 31.742,13.496 31.675,13.468 31.686 C 13.440 31.697,13.303 31.736,13.164 31.774 M22.167 34.000 C 22.167 34.109,25.333 34.167,31.333 34.167 C 37.333 34.167,40.500 34.109,40.500 34.000 C 40.500 33.891,37.333 33.833,31.333 33.833 C 25.333 33.833,22.167 33.891,22.167 34.000 M12.333 35.896 C 12.333 36.023,12.232 36.210,12.107 36.314 C 11.730 36.627,11.811 37.955,12.214 38.061 C 12.465 38.126,12.500 38.100,12.357 37.957 C 12.123 37.723,12.105 37.442,12.333 37.583 C 12.425 37.640,12.500 37.538,12.500 37.357 C 12.500 37.176,12.594 36.996,12.708 36.958 C 12.872 36.903,12.868 36.796,12.689 36.460 C 12.563 36.224,12.511 35.950,12.574 35.849 C 12.636 35.749,12.607 35.667,12.510 35.667 C 12.413 35.667,12.333 35.770,12.333 35.896 M11.667 38.971 C 11.320 39.346,11.246 40.780,11.588 40.496 C 11.721 40.386,11.789 40.229,11.738 40.148 C 11.688 40.067,11.731 40.000,11.833 40.000 C 11.936 40.000,11.973 39.925,11.917 39.833 C 11.860 39.742,11.877 39.667,11.954 39.667 C 12.094 39.667,12.122 38.897,11.987 38.768 C 11.948 38.731,11.804 38.822,11.667 38.971 M19.176 41.428 C 19.296 41.573,19.283 41.660,19.132 41.721 C 18.976 41.783,18.973 41.811,19.120 41.820 C 19.231 41.827,19.282 41.941,19.231 42.073 C 19.180 42.205,19.026 42.269,18.888 42.216 C 18.713 42.149,18.650 42.215,18.678 42.435 C 18.700 42.608,18.660 42.884,18.589 43.047 C 18.518 43.210,18.506 43.570,18.561 43.847 C 18.635 44.219,18.608 44.319,18.456 44.232 C 18.343 44.166,18.308 44.177,18.380 44.256 C 18.451 44.334,18.620 44.415,18.755 44.435 C 19.042 44.477,19.093 43.892,18.811 43.798 C 18.696 43.760,18.668 43.590,18.740 43.365 C 18.804 43.162,18.935 43.043,19.030 43.102 C 19.144 43.172,19.133 43.251,19.000 43.333 C 18.855 43.423,18.850 43.491,18.982 43.572 C 19.147 43.674,19.241 43.469,19.186 43.125 C 19.176 43.056,19.229 43.000,19.305 43.000 C 19.381 43.000,19.459 42.600,19.479 42.111 C 19.507 41.409,19.461 41.222,19.260 41.222 C 19.077 41.222,19.053 41.280,19.176 41.428 M10.908 42.083 C 10.934 42.313,10.905 42.500,10.845 42.500 C 10.785 42.500,10.731 42.883,10.725 43.351 C 10.718 43.852,10.626 44.256,10.499 44.334 C 10.379 44.408,10.326 44.620,10.377 44.816 C 10.428 45.009,10.410 45.167,10.337 45.167 C 10.265 45.167,10.210 45.511,10.214 45.931 C 10.219 46.416,10.137 46.749,9.988 46.841 C 9.726 47.003,9.642 49.001,9.898 48.982 C 9.979 48.976,10.111 49.072,10.189 49.194 C 10.278 49.331,10.296 49.225,10.238 48.917 C 10.180 48.613,10.245 48.220,10.403 47.917 C 10.688 47.372,10.740 47.101,10.538 47.227 C 10.372 47.329,10.391 45.978,10.559 45.706 C 10.629 45.593,10.633 45.413,10.567 45.308 C 10.496 45.193,10.521 45.160,10.629 45.227 C 10.729 45.288,10.857 45.263,10.915 45.169 C 10.973 45.076,10.903 45.000,10.760 45.000 C 10.617 45.000,10.500 44.925,10.500 44.833 C 10.500 44.742,10.575 44.667,10.667 44.667 C 10.758 44.667,10.833 44.550,10.833 44.407 C 10.833 44.264,10.890 44.182,10.958 44.224 C 11.122 44.326,11.094 43.453,10.924 43.179 C 10.824 43.016,10.866 43.006,11.105 43.133 C 11.388 43.284,11.421 43.223,11.459 42.483 C 11.495 41.776,11.458 41.667,11.182 41.667 C 10.940 41.667,10.874 41.768,10.908 42.083 M18.404 44.944 C 18.452 45.070,18.389 45.114,18.240 45.056 C 18.068 44.991,18.027 45.042,18.099 45.230 C 18.155 45.378,18.261 45.461,18.333 45.417 C 18.406 45.372,18.507 45.445,18.559 45.579 C 18.610 45.713,18.569 45.874,18.467 45.937 C 18.348 46.010,18.329 45.975,18.414 45.837 C 18.502 45.695,18.469 45.649,18.315 45.701 C 18.188 45.743,18.082 45.847,18.081 45.931 C 18.079 46.015,18.024 46.169,17.958 46.273 C 17.891 46.377,17.949 46.555,18.085 46.668 C 18.394 46.924,18.411 47.232,18.111 47.117 C 17.989 47.070,17.889 47.137,17.889 47.266 C 17.889 47.395,17.970 47.503,18.069 47.507 C 18.169 47.510,18.044 47.625,17.792 47.762 C 17.478 47.932,17.333 48.144,17.333 48.432 C 17.333 48.697,17.402 48.811,17.518 48.739 C 17.642 48.662,17.666 48.741,17.590 48.979 C 17.511 49.229,17.549 49.333,17.719 49.333 C 17.852 49.333,18.015 49.165,18.081 48.958 C 18.147 48.752,18.238 48.471,18.283 48.333 C 18.329 48.196,18.390 47.679,18.419 47.185 C 18.448 46.691,18.562 46.231,18.672 46.163 C 19.072 45.916,19.076 44.682,18.677 44.712 C 18.473 44.727,18.358 44.825,18.404 44.944 M9.440 49.295 C 9.105 49.837,9.168 50.625,9.545 50.625 C 9.818 50.625,9.923 50.520,9.941 50.229 C 9.954 50.011,9.888 49.833,9.795 49.833 C 9.702 49.833,9.729 49.706,9.855 49.551 C 9.980 49.396,9.996 49.322,9.889 49.386 C 9.782 49.450,9.665 49.412,9.628 49.301 C 9.577 49.148,9.532 49.147,9.440 49.295 M17.452 49.853 C 17.288 50.032,17.198 50.249,17.251 50.335 C 17.304 50.420,17.161 50.537,16.935 50.594 C 16.671 50.660,16.555 50.782,16.612 50.931 C 16.661 51.060,16.787 51.117,16.892 51.058 C 16.998 50.999,16.987 51.055,16.868 51.182 C 16.685 51.380,16.627 51.377,16.482 51.165 C 16.355 50.980,16.341 51.022,16.428 51.333 C 16.492 51.563,16.629 51.805,16.731 51.872 C 16.833 51.940,16.855 51.996,16.780 51.997 C 16.705 51.999,16.804 52.224,16.999 52.499 C 17.317 52.945,17.323 52.986,17.052 52.891 C 16.808 52.805,16.789 52.826,16.954 53.005 C 17.104 53.166,17.110 53.284,16.976 53.446 C 16.875 53.567,16.858 53.669,16.938 53.673 C 17.018 53.676,16.896 53.791,16.667 53.930 L 16.250 54.181 16.667 54.078 L 17.083 53.975 16.667 54.279 C 16.438 54.446,16.229 54.771,16.203 55.000 C 16.177 55.229,16.133 55.620,16.105 55.868 C 16.077 56.116,16.117 56.281,16.194 56.233 C 16.271 56.186,16.333 56.339,16.333 56.573 C 16.333 56.834,16.240 57.000,16.093 57.000 C 15.961 57.000,15.799 57.088,15.732 57.195 C 15.652 57.325,15.702 57.355,15.884 57.286 C 16.034 57.228,16.207 57.265,16.270 57.366 C 16.335 57.471,16.310 57.505,16.211 57.444 C 15.946 57.280,15.700 57.696,15.759 58.211 C 15.792 58.505,15.747 58.633,15.634 58.563 C 15.531 58.499,15.492 58.550,15.541 58.685 C 15.587 58.812,15.709 58.898,15.813 58.875 C 15.916 58.852,16.000 58.908,16.000 59.000 C 16.000 59.092,16.068 59.167,16.152 59.167 C 16.235 59.167,16.285 59.037,16.262 58.878 C 16.207 58.504,16.455 57.350,16.690 56.890 C 16.791 56.692,16.843 56.266,16.805 55.944 C 16.767 55.621,16.796 55.393,16.868 55.438 C 16.941 55.483,17.000 55.268,17.000 54.960 C 17.000 54.652,17.075 54.325,17.166 54.234 C 17.257 54.143,17.380 53.472,17.439 52.742 C 17.498 52.013,17.621 51.321,17.713 51.205 C 17.841 51.043,17.805 51.020,17.565 51.106 C 17.289 51.206,17.296 51.169,17.625 50.808 C 17.831 50.581,18.000 50.194,18.000 49.948 C 18.000 49.426,17.865 49.402,17.452 49.853 M9.073 51.458 C 9.002 51.710,8.938 51.967,8.930 52.028 C 8.923 52.089,8.860 52.195,8.792 52.264 C 8.552 52.504,8.664 53.457,8.958 53.682 C 9.119 53.805,9.196 53.842,9.131 53.764 C 9.065 53.687,9.119 53.469,9.251 53.281 C 9.426 53.032,9.442 52.881,9.310 52.722 C 9.175 52.560,9.198 52.478,9.397 52.401 C 9.544 52.345,9.615 52.219,9.555 52.121 C 9.485 52.007,9.553 51.985,9.746 52.059 C 10.001 52.156,10.015 52.135,9.836 51.920 C 9.721 51.781,9.520 51.667,9.390 51.667 C 9.207 51.667,9.194 51.594,9.333 51.333 C 9.434 51.146,9.444 51.000,9.357 51.000 C 9.272 51.000,9.145 51.206,9.073 51.458 M8.378 54.302 C 8.250 54.384,8.179 54.814,8.188 55.460 C 8.198 56.154,8.123 56.567,7.960 56.731 C 7.799 56.892,7.713 57.353,7.703 58.106 C 7.694 58.828,7.609 59.301,7.469 59.411 C 7.190 59.631,7.086 60.333,7.333 60.333 C 7.438 60.333,7.465 60.242,7.395 60.125 C 7.322 60.005,7.400 60.023,7.578 60.167 C 7.845 60.382,7.876 60.383,7.807 60.173 C 7.763 60.039,7.900 59.767,8.113 59.570 C 8.590 59.128,8.601 58.899,8.156 58.661 C 7.902 58.525,7.858 58.421,7.988 58.265 C 8.085 58.148,8.108 57.997,8.040 57.929 C 7.972 57.861,8.029 57.831,8.167 57.861 C 8.308 57.893,8.396 57.818,8.369 57.690 C 8.342 57.565,8.455 57.361,8.619 57.237 C 8.913 57.013,8.739 56.897,8.255 56.993 C 8.166 57.010,8.222 56.882,8.380 56.708 C 8.538 56.533,8.666 56.321,8.664 56.237 C 8.663 56.152,8.589 56.196,8.500 56.333 C 8.370 56.534,8.338 56.508,8.336 56.198 C 8.334 55.987,8.402 55.856,8.485 55.908 C 8.658 56.014,8.627 55.571,8.449 55.394 C 8.386 55.330,8.334 55.197,8.336 55.097 C 8.337 54.998,8.417 55.029,8.513 55.167 C 8.650 55.362,8.666 55.335,8.583 55.042 C 8.525 54.835,8.545 54.667,8.628 54.667 C 8.710 54.667,8.778 54.554,8.778 54.417 C 8.778 54.138,8.681 54.110,8.378 54.302 M15.388 59.569 C 15.442 59.709,15.402 59.874,15.301 59.937 C 15.178 60.012,15.223 60.134,15.433 60.298 C 15.686 60.495,15.693 60.525,15.469 60.449 C 15.276 60.382,15.194 60.440,15.206 60.634 C 15.216 60.790,15.168 61.085,15.101 61.292 C 15.022 61.531,15.045 61.667,15.165 61.667 C 15.269 61.667,15.316 61.607,15.271 61.534 C 15.226 61.461,15.258 61.292,15.342 61.159 C 15.471 60.955,15.495 60.960,15.497 61.192 C 15.503 61.801,16.225 61.834,28.650 61.793 L 40.750 61.753 28.500 61.667 L 16.250 61.580 28.417 61.526 C 35.108 61.496,40.826 61.446,41.123 61.415 C 41.420 61.385,41.708 61.431,41.762 61.519 C 41.819 61.611,41.679 61.645,41.430 61.600 C 40.906 61.505,40.835 61.900,41.329 62.165 C 41.931 62.486,42.353 62.063,42.019 61.474 C 41.871 61.213,41.664 61.032,41.558 61.072 C 41.452 61.111,41.330 61.108,41.286 61.064 C 41.242 61.020,35.533 60.989,28.599 60.996 C 14.744 61.009,15.521 61.069,15.994 60.031 C 16.257 59.452,16.254 59.445,15.733 59.375 C 15.393 59.330,15.314 59.375,15.388 59.569 M7.142 60.792 C 7.128 60.952,7.109 61.248,7.100 61.450 C 7.091 61.652,6.990 61.910,6.875 62.025 C 6.560 62.340,6.592 63.103,6.909 62.839 C 7.043 62.729,7.217 62.678,7.297 62.727 C 7.376 62.777,7.436 62.652,7.429 62.450 C 7.422 62.241,7.506 62.101,7.625 62.125 C 7.882 62.176,7.907 61.281,7.661 60.822 C 7.446 60.421,7.175 60.405,7.142 60.792 M42.000 62.417 C 41.886 62.554,41.848 62.667,41.915 62.667 C 41.983 62.667,41.917 62.852,41.769 63.077 C 41.445 63.573,41.407 64.075,41.708 63.895 C 41.875 63.795,41.875 63.821,41.710 64.025 C 41.596 64.166,41.552 64.330,41.613 64.390 C 41.673 64.451,41.650 64.500,41.561 64.500 C 41.472 64.500,41.306 64.406,41.190 64.292 C 41.022 64.125,41.002 64.141,41.091 64.375 C 41.170 64.580,41.120 64.667,40.925 64.667 C 40.770 64.667,40.696 64.746,40.757 64.845 C 40.818 64.943,40.972 64.982,41.100 64.933 C 41.228 64.884,41.333 64.926,41.333 65.026 C 41.333 65.138,41.439 65.120,41.611 64.979 C 41.861 64.772,41.869 64.785,41.696 65.110 C 41.590 65.309,41.409 65.509,41.294 65.556 C 41.178 65.602,41.248 65.646,41.448 65.654 C 41.935 65.671,41.993 65.543,42.035 64.341 C 42.056 63.750,42.163 63.239,42.286 63.137 C 42.526 62.937,42.580 62.167,42.354 62.167 C 42.273 62.167,42.114 62.279,42.000 62.417 M6.827 63.047 C 6.686 63.159,6.553 63.501,6.531 63.807 C 6.510 64.114,6.385 64.571,6.255 64.824 C 6.022 65.273,6.029 65.286,6.592 65.459 C 7.054 65.601,7.167 65.591,7.167 65.406 C 7.167 65.270,7.064 65.216,6.914 65.274 C 6.666 65.369,6.775 64.832,7.116 64.280 C 7.272 64.027,7.272 63.167,7.115 63.167 C 7.041 63.167,7.027 63.092,7.083 63.000 C 7.217 62.783,7.143 62.797,6.827 63.047 M6.000 65.624 C 6.000 65.702,6.094 65.868,6.208 65.991 C 6.375 66.171,6.375 66.192,6.208 66.098 C 5.952 65.953,5.911 66.925,6.167 67.084 C 6.278 67.152,6.276 67.295,6.161 67.510 C 6.024 67.767,6.043 67.833,6.254 67.833 C 6.406 67.833,6.471 67.754,6.405 67.648 C 6.342 67.546,6.394 67.397,6.520 67.317 C 6.714 67.194,6.714 67.171,6.521 67.169 C 6.337 67.167,6.333 67.118,6.500 66.917 C 6.670 66.712,6.659 66.667,6.437 66.667 C 6.288 66.667,6.167 66.596,6.167 66.510 C 6.167 66.423,6.309 66.380,6.483 66.413 C 6.911 66.496,6.835 66.066,6.365 65.736 C 6.164 65.596,6.000 65.545,6.000 65.624 M41.000 66.417 C 40.857 66.589,40.850 66.667,40.980 66.667 C 41.082 66.667,41.167 66.737,41.167 66.824 C 41.167 66.910,41.033 66.955,40.869 66.924 C 40.667 66.885,40.571 66.969,40.571 67.187 C 40.571 67.376,40.657 67.475,40.780 67.428 C 40.895 67.384,41.040 67.430,41.102 67.530 C 41.177 67.652,41.042 67.686,40.692 67.635 C 40.404 67.593,40.205 67.594,40.250 67.639 C 40.294 67.683,40.247 67.820,40.145 67.943 C 39.880 68.262,7.572 68.277,7.444 67.958 C 7.381 67.803,7.356 67.808,7.346 67.977 C 7.338 68.118,7.211 68.054,7.011 67.810 C 6.717 67.451,6.693 67.446,6.739 67.750 C 6.767 67.933,6.723 68.212,6.642 68.370 C 6.502 68.641,7.451 68.658,23.288 68.661 C 40.405 68.665,40.833 68.653,40.833 68.203 C 40.833 68.061,40.883 67.994,40.943 68.054 C 41.003 68.114,41.153 68.080,41.276 67.978 C 41.564 67.739,41.577 66.501,41.292 66.497 C 41.153 66.496,41.167 66.441,41.333 66.333 C 41.471 66.244,41.499 66.171,41.395 66.169 C 41.292 66.168,41.114 66.279,41.000 66.417 M61.097 67.311 C 61.025 67.428,60.862 67.483,60.736 67.434 C 60.546 67.362,60.542 67.404,60.709 67.673 C 60.977 68.101,61.473 68.078,62.044 67.611 C 62.517 67.223,62.103 67.025,61.556 67.377 C 61.449 67.446,61.332 67.412,61.295 67.301 C 61.244 67.148,61.197 67.150,61.097 67.311 " stroke="none" fill="#04acac" fill-rule="evenodd"></path><path id="path3" d="M26.708 32.958 C 29.252 32.984,33.415 32.984,35.958 32.958 C 38.502 32.932,36.421 32.911,31.333 32.911 C 26.246 32.911,24.165 32.932,26.708 32.958 " stroke="none" fill="#548c94" fill-rule="evenodd"></path><path id="path4" d="" stroke="none" fill="#1cb0b4" fill-rule="evenodd"></path></g></svg>